<svg width="27" height="22" viewBox="0 0 27 22" fill="none" xmlns="http://www.w3.org/2000/svg">
<path d="M11.4249 0.44043C11.6916 1.24043 11.8249 1.9071 11.8249 2.44043C11.8249 2.92043 11.7449 3.56043 11.5849 4.36043C8.01159 4.36043 6.22492 6.20043 6.22492 9.88043C6.22492 11.2138 6.91826 11.9604 8.30492 12.1204C10.3316 12.2804 11.3449 13.5871 11.3449 16.0404C11.3449 17.9071 10.8916 19.3471 9.98492 20.3604C9.13159 21.3204 7.55826 21.8004 5.26492 21.8004C2.11826 21.8004 0.544922 19.6671 0.544922 15.4004C0.544922 11.1338 1.39826 7.5871 3.10492 4.76043C4.81159 1.88043 7.58492 0.44043 11.4249 0.44043ZM25.9049 0.44043C26.1716 1.24043 26.3049 1.9071 26.3049 2.44043C26.3049 2.92043 26.2249 3.56043 26.0649 4.36043C22.4916 4.36043 20.7049 6.20043 20.7049 9.88043C20.7049 11.2138 21.3983 11.9604 22.7849 12.1204C24.8116 12.2804 25.8249 13.5871 25.8249 16.0404C25.8249 17.9071 25.3716 19.3471 24.4649 20.3604C23.6116 21.3204 22.0383 21.8004 19.7449 21.8004C16.5983 21.8004 15.0249 19.6671 15.0249 15.4004C15.0249 11.1338 15.8783 7.5871 17.5849 4.76043C19.2916 1.88043 22.0649 0.44043 25.9049 0.44043Z" fill="#D54B00"/>
</svg>
