<svg width="32" height="31" viewBox="0 0 32 31" fill="none" xmlns="http://www.w3.org/2000/svg">
<path d="M15.8321 30.1303C8.47408 30.1303 1 28.552 1 25.5345C1 22.842 6.75643 21.7278 9.21685 21.3796H9.30969C9.65786 21.3796 9.95961 21.635 10.006 21.9831C10.0292 22.1688 9.98282 22.3545 9.86677 22.4938C9.75071 22.6331 9.58823 22.7491 9.40254 22.7723C4.27281 23.5151 2.36947 24.8613 2.36947 25.5577C2.36947 26.8575 7.61526 28.7609 15.8089 28.7609C24.0025 28.7609 29.2483 26.8575 29.2483 25.5577C29.2483 24.8613 27.3218 23.5151 22.1456 22.7723C21.9599 22.7491 21.7974 22.6563 21.6814 22.4938C21.5653 22.3545 21.5189 22.1688 21.5421 21.9831C21.5885 21.635 21.8903 21.3796 22.2385 21.3796H22.3313C24.8149 21.7278 30.6178 22.842 30.6178 25.5345C30.641 28.5288 23.1901 30.1303 15.8321 30.1303ZM15.3447 25.2095C14.9965 24.8846 6.96534 17.2944 6.96534 9.84355C6.96534 4.96915 10.9345 1 15.8089 1C20.6833 1 24.6524 4.96915 24.6524 9.84355C24.6524 17.0855 16.6213 24.8613 16.2731 25.1863L15.8089 25.6505L15.3447 25.2095ZM15.8321 2.39269C11.7237 2.39269 8.38123 5.73513 8.38123 9.84355C8.38123 15.6696 14.068 21.9135 15.8321 23.7008C17.6194 21.8671 23.3062 15.5071 23.3062 9.84355C23.283 5.75834 19.9405 2.39269 15.8321 2.39269ZM15.8321 13.7895C13.511 13.7895 11.6308 11.9094 11.6308 9.58823C11.6308 7.26709 13.511 5.38696 15.8321 5.38696C18.1532 5.38696 20.0334 7.26709 20.0334 9.58823C20.0334 11.9094 18.1532 13.7895 15.8321 13.7895ZM15.8321 6.77965C14.2769 6.77965 13.0235 8.03306 13.0235 9.58823C13.0235 11.1434 14.2769 12.3968 15.8321 12.3968C17.3873 12.3968 18.6407 11.1434 18.6407 9.58823C18.6407 8.03306 17.3641 6.77965 15.8321 6.77965Z" fill="black" stroke="black"/>
</svg>
