<svg width="114" height="105" viewBox="0 0 114 105" fill="none" xmlns="http://www.w3.org/2000/svg">
<path d="M22.087 79.9329L19.0306 91.0259H25.187L22.087 79.9329ZM16.149 74.9364C16.3818 74.2641 16.6438 73.6988 16.9349 73.2404C17.226 72.782 17.5752 72.4153 17.9828 72.1402C18.3903 71.8652 18.8706 71.6818 19.4236 71.5902C20.0058 71.4679 20.6898 71.3915 21.4757 71.361C22.5527 71.361 23.4551 71.3915 24.1828 71.4526C24.9105 71.5138 25.5217 71.6818 26.0166 71.9569C26.5114 72.2014 26.9335 72.5986 27.2828 73.1487C27.6321 73.6682 27.9668 74.3863 28.287 75.3031L35.7095 97.26C35.8551 97.749 35.986 98.2226 36.1025 98.681C36.248 99.1088 36.3208 99.5672 36.3208 100.056C36.3208 100.82 36.1752 101.477 35.8842 102.027C35.6222 102.577 35.2729 103.036 34.8363 103.402C34.3997 103.739 33.9339 103.983 33.4391 104.136C32.9443 104.319 32.4785 104.411 32.0419 104.411C31.7217 104.411 31.3433 104.35 30.9067 104.228C30.4701 104.105 30.0917 103.922 29.7715 103.677C29.102 103.219 28.6217 102.638 28.3306 101.936C28.0687 101.202 27.8213 100.469 27.5884 99.7353L27.1081 97.9476H17.1532L16.4983 100.331C16.3818 100.759 16.2363 101.217 16.0616 101.706C15.887 102.165 15.6396 102.608 15.3194 103.036C15.0283 103.433 14.6353 103.754 14.1405 103.998C13.6748 104.273 13.0781 104.411 12.3504 104.411C11.8555 104.411 11.3461 104.319 10.8222 104.136C10.2983 103.952 9.83253 103.693 9.42501 103.357C9.0175 102.99 8.68276 102.547 8.42079 102.027C8.15882 101.477 8.02783 100.835 8.02783 100.102C8.02783 99.6131 8.07149 99.1547 8.15882 98.7269C8.27525 98.299 8.40624 97.8559 8.55178 97.3975L16.149 74.9364Z" fill="white"/>
<path d="M54.1123 78.5577V85.9836H57.4743C57.9691 85.9836 58.4785 85.9683 59.0025 85.9378C59.5555 85.8767 60.0795 85.7086 60.5743 85.4335C61.2438 85.0363 61.695 84.5473 61.9278 83.9667C62.1898 83.3861 62.3208 82.836 62.3208 82.3165C62.3208 81.797 62.2335 81.308 62.0588 80.8496C61.8842 80.3607 61.5931 79.9329 61.1856 79.5662C60.6616 79.0772 60.0649 78.7869 59.3954 78.6952C58.726 78.6035 58.0128 78.5577 57.256 78.5577H54.1123ZM45.3363 76.9075C45.3363 76.5408 45.3363 76.1588 45.3363 75.7615C45.3654 75.3642 45.4382 74.967 45.5546 74.5697C45.671 74.1419 45.8311 73.7446 46.0349 73.3779C46.2677 73.0112 46.5879 72.675 46.9954 72.3694C47.5194 71.9722 48.0724 71.743 48.6546 71.6818C49.2659 71.6207 49.8626 71.5902 50.4447 71.5902H58.6968C59.8029 71.6513 60.9382 71.743 62.1025 71.8652C63.2959 71.9569 64.4457 72.293 65.5518 72.8737C67.0072 73.6071 68.2297 74.7531 69.2194 76.3116C70.209 77.8701 70.7039 79.8106 70.7039 82.1331C70.7039 83.6305 70.4856 85.0363 70.049 86.3503C69.6123 87.6644 69.0302 88.7645 68.3025 89.6507C67.633 90.4453 66.9053 91.0717 66.1194 91.5301C65.3335 91.958 64.5184 92.2788 63.6743 92.4927C62.8302 92.7067 61.986 92.8442 61.1419 92.9053C60.2978 92.9359 59.4973 92.9511 58.7405 92.9511H54.0687V99.3686C54.0687 99.9798 54.0105 100.53 53.894 101.019C53.8358 101.202 53.7339 101.492 53.5884 101.89C53.4429 102.256 53.21 102.623 52.8898 102.99C52.5696 103.357 52.1476 103.677 51.6236 103.952C51.0997 104.258 50.4593 104.411 49.7025 104.411C49.295 104.411 48.7856 104.319 48.1743 104.136C47.5922 103.952 47.0245 103.525 46.4715 102.852C45.9767 102.211 45.671 101.599 45.5546 101.019C45.4382 100.408 45.3654 99.7964 45.3363 99.1852V76.9075Z" fill="white"/>
<path d="M79.8729 76.2199C79.902 75.7004 79.9311 75.1809 79.9602 74.6614C80.0184 74.1113 80.2076 73.5765 80.5278 73.057C80.9353 72.3847 81.4738 71.8958 82.1433 71.5902C82.8128 71.254 83.5114 71.0859 84.2391 71.0859C85.4616 71.0859 86.4658 71.5443 87.2518 72.4611C88.0668 73.3473 88.4743 74.5697 88.4743 76.1282V83.6L97.0757 72.9195C97.3959 72.5222 97.818 72.125 98.3419 71.7277C98.8658 71.2999 99.5499 71.0859 100.394 71.0859C100.947 71.0859 101.456 71.2082 101.922 71.4526C102.417 71.6666 102.839 71.9722 103.188 72.3694C103.538 72.7667 103.814 73.2098 104.018 73.6988C104.222 74.1877 104.324 74.6767 104.324 75.1656C104.324 75.899 104.163 76.5408 103.843 77.0908C103.552 77.6104 103.217 78.084 102.839 78.5119L96.9447 85.296L105.153 97.26C105.386 97.5962 105.59 97.9934 105.764 98.4518C105.968 98.9102 106.07 99.4603 106.07 100.102C106.07 100.622 105.983 101.141 105.808 101.661C105.633 102.149 105.357 102.608 104.979 103.036C104.629 103.433 104.178 103.754 103.625 103.998C103.101 104.273 102.49 104.411 101.791 104.411C101.296 104.411 100.86 104.334 100.481 104.182C100.103 104.059 99.7682 103.891 99.4771 103.677C99.186 103.464 98.9241 103.234 98.6912 102.99C98.4874 102.745 98.2982 102.501 98.1236 102.256L90.6137 90.7967L88.4743 92.5844V99.5061C88.4452 99.9339 88.387 100.438 88.2996 101.019C88.2414 101.569 88.0522 102.104 87.732 102.623C87.4119 103.082 86.9607 103.494 86.3785 103.861C85.7964 104.228 85.0687 104.411 84.1954 104.411C83.8461 104.411 83.4823 104.365 83.1039 104.273C82.7255 104.212 82.3471 104.075 81.9687 103.861C81.4738 103.586 81.0954 103.265 80.8335 102.898C80.5715 102.531 80.3677 102.165 80.2222 101.798C80.0766 101.431 79.9748 101.08 79.9166 100.744C79.8874 100.408 79.8729 100.133 79.8729 99.9187V76.2199Z" fill="white"/>
<path d="M106.185 60.0864C110.051 60.0864 113.238 56.9356 112.666 53.1121C112.016 48.7669 110.76 44.5063 108.92 40.4365C106.279 34.5931 103.591 30.8274 98.8368 26.2524C98.5224 25.9499 98.5322 25.879 98.2095 25.5833C96.6734 24.1757 117.747 14.3288 106.986 3.58049C96.6127 -8.28261 85.0719 15.4897 82.1016 14.0401C80.5108 13.2638 80.2657 13.2816 78.5945 12.6473C71.7961 10.0668 64.5096 8.73867 57.1511 8.73867C49.7926 8.73867 42.5061 10.0668 35.7077 12.6473C33.9827 13.302 30.0564 15.1298 28.4172 15.9357C25.0942 17.5695 15.3923 -5.66277 5.45439 2.97704C5.02003 3.35467 4.54251 3.73097 4.07242 4.06306C-7.03105 11.9068 14.7787 26.3692 13.6531 27.4006C11.8455 29.057 14.0435 27.1987 12.5054 29.057C9.6161 32.5478 7.21986 36.3709 5.38214 40.4365C3.54253 44.5063 2.28615 48.7669 1.63606 53.1121C1.06404 56.9356 4.2508 60.0864 8.11679 60.0864L57.1511 60.0864H106.185Z" fill="white"/>
<circle cx="82.1304" cy="41.8003" r="4.04541" fill="black"/>
<circle cx="31.9673" cy="41.8003" r="4.04541" fill="black"/>
</svg>
