<svg width="152" height="152" viewBox="0 0 152 152" fill="none" xmlns="http://www.w3.org/2000/svg">
<path d="M58.5582 25.3556C51.304 27.8439 44.6662 31.8555 39.0905 37.1211C33.5148 42.3866 29.1304 48.7842 26.2315 55.8843C23.3326 62.9844 21.9865 70.6225 22.2835 78.2858C22.5805 85.9491 24.5137 93.4602 27.9534 100.315L33.5598 97.5012C30.5215 91.4466 28.8138 84.812 28.5515 78.0429C28.2892 71.2738 29.4782 64.5269 32.0388 58.2554C34.5994 51.9838 38.4723 46.3327 43.3974 41.6815C48.3224 37.0304 54.1857 33.4869 60.5934 31.289L58.5582 25.3556Z" fill="#D9D9D9"/>
<path d="M55.9773 29.7126C55.2922 28.1215 56.024 26.2669 57.6524 25.6757C66.6258 22.4177 76.3251 21.6018 85.7503 23.3406C96.2059 25.2694 105.855 30.2554 113.477 37.6681C121.098 45.0807 126.351 54.587 128.57 64.9849C130.789 75.3828 129.875 86.2052 125.944 96.0836C122.012 105.962 115.24 114.453 106.482 120.482C97.7254 126.511 87.377 129.808 76.746 129.956C66.115 130.104 55.6788 127.097 46.7572 121.313C38.7149 116.1 32.2289 108.843 27.9483 100.309C27.1715 98.7609 27.9142 96.9107 29.5053 96.2255C31.0964 95.5404 32.9325 96.2806 33.7211 97.823C37.5029 105.219 43.1687 111.511 50.1697 116.049C58.0501 121.158 67.2683 123.814 76.6587 123.684C86.0491 123.553 95.1898 120.641 102.925 115.315C110.66 109.989 116.642 102.489 120.115 93.7637C123.588 85.0382 124.395 75.4787 122.435 66.2943C120.475 57.1099 115.835 48.7129 109.103 42.1654C102.37 35.6178 93.8476 31.2137 84.6122 29.5099C76.4074 27.9963 67.9675 28.6744 60.1379 31.449C58.505 32.0276 56.6625 31.3037 55.9773 29.7126Z" fill="#C700C3"/>
<path d="M77.354 55.1619L77.3964 80.3463" stroke="#171717" stroke-width="6" stroke-linecap="round"/>
<path d="M56.3462 102.8L77.406 80.3465" stroke="#171717" stroke-width="6" stroke-linecap="round"/>
</svg>
