<svg width="26" height="20" viewBox="0 0 26 20" fill="none" xmlns="http://www.w3.org/2000/svg">
<path d="M25.3273 2.8375C25.2128 2.26091 24.9572 1.73326 24.6001 1.29737C24.5248 1.20239 24.4462 1.11734 24.3609 1.03228C23.7283 0.396565 22.8405 0 21.8705 0H3.52232C2.55238 0 1.6677 0.396565 1.03213 1.03228C0.947074 1.11734 0.868416 1.20239 0.792932 1.29737C0.435696 1.73321 0.180031 2.26091 0.0687393 2.8375C0.0230123 3.06004 0 3.29001 0 3.52252V16.409C0 16.9034 0.104845 17.3786 0.29182 17.8078C0.465255 18.2174 0.720969 18.5881 1.03208 18.8989C1.11094 18.9776 1.18925 19.0499 1.2747 19.1218C1.88403 19.6265 2.67057 19.9312 3.52232 19.9312H21.8705C22.7226 19.9312 23.5126 19.6264 24.1184 19.1186C24.2036 19.0499 24.2823 18.9776 24.3609 18.8989C24.6719 18.5881 24.9276 18.2174 25.1046 17.8078V17.8046C25.2915 17.3755 25.3928 16.9034 25.3928 16.4091V3.52252C25.3929 3.29001 25.3702 3.06004 25.3273 2.8375ZM2.30663 2.30663C2.62132 1.9923 3.04392 1.802 3.52232 1.802H21.8705C22.3489 1.802 22.7753 1.9923 23.0862 2.30663C23.1419 2.36263 23.1943 2.42502 23.2406 2.48701L13.6237 10.8684C13.3584 11.1008 13.0308 11.2157 12.6964 11.2157C12.3654 11.2157 12.038 11.1008 11.7692 10.8684L2.15601 2.48344C2.19857 2.42145 2.25099 2.36263 2.30663 2.30663ZM1.802 16.409V4.34818L8.76143 10.4194L1.80552 16.4842C1.802 16.4612 1.802 16.4353 1.802 16.409ZM21.8705 18.1289H3.52232C3.21081 18.1289 2.91934 18.047 2.67057 17.9031L10.0096 11.5073L10.6948 12.1034C11.2681 12.6016 11.9856 12.8539 12.6964 12.8539C13.4109 12.8539 14.1284 12.6016 14.7017 12.1034L15.3865 11.5073L22.7226 17.9031C22.4735 18.047 22.1821 18.1289 21.8705 18.1289ZM23.5909 16.409C23.5909 16.4353 23.5909 16.4612 23.5875 16.4842L16.6316 10.4229L23.5909 4.3514V16.409Z" fill="black"/>
</svg>
