<svg width="31" height="31" viewBox="0 0 31 31" fill="none" xmlns="http://www.w3.org/2000/svg">
<path d="M15.6873 30.187C23.8312 30.187 30.4331 23.5851 30.4331 15.4412C30.4331 7.29726 23.8312 0.695312 15.6873 0.695312C7.54335 0.695312 0.941406 7.29726 0.941406 15.4412C0.941406 23.5851 7.54335 30.187 15.6873 30.187Z" fill="black"/>
<path d="M13.8497 22.7356H16.7873V15.3797H18.8367L19.0553 12.9167H16.7873C16.7873 12.9167 16.7873 11.997 16.7873 11.5138C16.7873 10.9332 16.9042 10.7037 17.4656 10.7037C17.9175 10.7037 19.0553 10.7037 19.0553 10.7037V8.14746C19.0553 8.14746 17.3792 8.14746 17.0215 8.14746C14.8358 8.14746 13.8502 9.1103 13.8502 10.9528C13.8502 12.558 13.8502 12.9167 13.8502 12.9167H12.3223V15.4106H13.8502L13.8497 22.7356Z" fill="white"/>
</svg>
