<svg width="543" height="475" viewBox="0 0 543 475" fill="none" xmlns="http://www.w3.org/2000/svg">
<path d="M109.958 474.357H432.924C499.638 426.446 542.882 349.601 542.882 262.969C542.882 117.735 421.353 0 271.441 0C121.529 0 0 117.734 0 262.969C0 349.601 43.2443 426.445 109.958 474.357Z" fill="#F8B5A7"/>
<path d="M509.712 140.465L460.457 131.148C460.128 130.008 459.618 128.919 458.945 127.933C457.262 125.465 454.72 123.801 451.786 123.246L362.508 106.358C359.572 105.805 356.599 106.424 354.131 108.106C353.144 108.779 352.271 109.606 351.55 110.547L302.293 101.23C297.298 100.284 292.232 101.34 288.03 104.206C283.828 107.07 280.994 111.4 280.049 116.397L268.104 179.545L222.032 176.412C228.965 173.064 236.065 168.532 240.743 160.561C247.291 149.405 247.645 134.105 241.821 113.822C243.42 111.774 245.684 108.074 245.747 103.485C245.764 102.269 245.714 101.131 245.675 100.219C245.636 99.2888 245.563 97.5896 245.725 97.0968C245.787 97.0609 245.922 96.9943 246.18 96.909C247.327 96.5318 250.372 95.5286 251.305 92.6691C251.689 91.4932 251.828 89.6498 250.317 87.5447C249.22 86.016 247.6 84.7345 245.968 83.7179C253.354 74.9207 252.688 61.7899 248.987 55.2601C246.774 51.3532 243.218 49.7876 239.925 51.2741C232.37 54.6863 223.296 50.3288 218.439 47.3292C220.371 44.8375 219.683 42.5529 219.184 41.5206C216.202 35.352 200.278 35.3998 193.569 35.7084C179.386 36.3587 164.785 39.672 153.509 44.7975C137.215 52.2039 130.253 62.0256 127.283 68.9606C124.708 74.9685 124.573 79.9431 124.662 82.0165C117.077 100.35 118.429 118.347 128.688 135.516C136.856 149.189 148.364 158.31 153.28 162.206L153.397 162.3C153.895 162.694 154.311 163.024 154.633 163.29C157.627 165.768 160.828 167.025 164.145 167.025C164.513 167.025 164.869 167.009 165.212 166.98L162.838 178.113C161.439 178.56 160.25 179.322 159.335 180.352C157.28 180.743 155.245 181.147 153.259 181.563C151.825 180.212 149.53 178.956 146.019 179.08C144.245 175.882 140.444 171.157 133.421 170.967C130.797 170.921 128.542 171.943 127.091 173.891C124.638 177.186 124.938 182.459 125.899 187.018C125.721 187.073 125.546 187.131 125.373 187.195C124.655 187.441 124.151 187.701 123.939 187.817C123.782 187.905 123.631 188.007 123.486 188.119C122.735 188.595 122.064 189.167 121.488 189.819C121.356 189.969 121.227 190.124 121.102 190.286C115.611 192.192 110.417 194.253 105.651 196.419C88.019 204.434 74.2431 226.427 64.706 261.79C57.7278 287.664 55.6893 311.552 55.6695 311.789C55.503 313.778 56.926 315.512 58.9078 315.737L59.4932 315.803C59.0056 338.919 81.5356 358.104 102.83 360.077C107.404 360.501 111.848 360.182 116.056 359.134L114.007 403.771C113.923 405.612 115.229 407.237 117.042 407.55C117.061 407.553 118.668 407.83 121.606 408.282L112.28 469.101C112.117 470.161 112.424 471.234 113.122 472.045C113.819 472.857 114.833 473.323 115.903 473.323H301.249C302.342 473.323 303.37 472.84 304.066 472.003C304.765 471.165 305.053 470.067 304.855 468.991C302.855 458.154 301.006 447.998 299.348 438.742L447.975 466.856C449.144 467.078 450.337 467.19 451.52 467.19C460.656 467.189 468.521 460.669 470.22 451.689L473.177 436.052L488.763 439.268C489.787 439.475 490.863 439.227 491.692 438.607C492.534 437.976 493.064 437.012 493.146 435.965L507.596 254.094L524.881 162.71C526.831 152.394 520.027 142.415 509.712 140.465Z" fill="white"/>
<path d="M301.248 469.656C295.659 439.361 287.871 396.132 287.162 386.732C287.149 386.552 128.143 389.83 128.143 389.83L115.902 469.656H301.248V469.656Z" fill="#0E40A4"/>
<path d="M301.25 470.868H115.904C115.55 470.868 115.214 470.713 114.984 470.445C114.753 470.177 114.652 469.822 114.705 469.472L126.946 389.647C127.036 389.065 127.531 388.631 128.12 388.619C128.12 388.619 167.872 387.8 207.625 387.002C227.501 386.603 247.379 386.211 262.288 385.929C269.743 385.788 275.957 385.674 280.307 385.602C282.484 385.566 284.194 385.54 285.361 385.525C285.948 385.518 286.399 385.514 286.703 385.513C287.171 385.511 288.287 385.508 288.372 386.641C289.098 396.259 297.499 442.643 302.442 469.436C302.508 469.79 302.412 470.155 302.182 470.431C301.951 470.708 301.609 470.868 301.25 470.868ZM117.315 468.443H299.793C294.015 437.093 287.162 398.838 286.055 387.941C275.066 388.047 180.793 389.958 129.188 391.021L117.315 468.443Z" fill="#0E0181"/>
<path d="M213.79 469.574C213.121 469.574 212.578 469.032 212.578 468.362V400.964C212.578 400.294 213.121 399.751 213.79 399.751C214.46 399.751 215.003 400.294 215.003 400.964V468.362C215.003 469.032 214.46 469.574 213.79 469.574Z" fill="#0E0181"/>
<path d="M214.434 447.973C213.878 447.973 213.378 447.588 213.252 447.023C213.107 446.37 213.519 445.722 214.172 445.577C222.987 443.618 225.988 410.809 226.401 398.332C226.423 397.663 226.977 397.144 227.653 397.16C228.322 397.183 228.846 397.743 228.824 398.412C228.666 403.195 226.927 445.226 214.698 447.943C214.609 447.963 214.521 447.973 214.434 447.973Z" fill="#0E0181"/>
<path d="M214.656 448.904L193.095 441.645C192.461 441.431 192.12 440.744 192.333 440.109C192.547 439.475 193.234 439.133 193.868 439.347L214.648 446.344L244.502 436.109C245.135 435.892 245.824 436.229 246.041 436.863C246.258 437.496 245.921 438.185 245.288 438.402L214.656 448.904Z" fill="#0E0181"/>
<path d="M59.5 311.157C59.5 311.157 67.3461 217.001 107.346 198.819C147.346 180.638 200.834 177.697 200.834 177.697L337.325 186.98L343.349 246.199L284.832 283.11C290.737 311.456 293.473 397.817 293.473 397.817C237.739 423.74 117.847 403.002 117.847 403.002L121.738 318.242L59.5 311.157Z" fill="#EE4622"/>
<path d="M129.767 304.412C129.656 304.412 129.544 304.396 129.431 304.364C128.788 304.179 128.417 303.508 128.602 302.864C142.625 254.126 136.842 229.97 129.522 218.288C122.721 207.436 113.669 205.761 113.578 205.745C112.92 205.632 112.476 205.006 112.588 204.348C112.699 203.689 113.32 203.241 113.98 203.354C114.39 203.422 124.11 205.163 131.514 216.903C139.141 228.993 145.231 253.838 130.931 303.534C130.779 304.066 130.294 304.412 129.767 304.412Z" fill="#0E2BAA"/>
<path d="M284.652 285.258C284.64 285.258 284.629 285.258 284.619 285.257C283.949 285.239 283.421 284.682 283.44 284.013C283.455 283.463 284.628 228.714 258.769 200.326C258.319 199.831 258.354 199.064 258.849 198.613C259.344 198.162 260.111 198.198 260.562 198.693C274.448 213.939 280.587 236.361 283.291 252.487C286.211 269.899 285.867 283.94 285.864 284.079C285.845 284.736 285.306 285.258 284.652 285.258Z" fill="#0E2BAA"/>
<path d="M210.557 412.986C201.43 412.987 192.613 412.703 184.517 412.276C147.929 410.35 117.762 405.184 117.462 405.132C116.86 405.028 116.429 404.492 116.457 403.882L120.297 320.254L59.1844 313.298C58.5335 313.224 58.059 312.646 58.1137 311.993C58.1334 311.756 60.1647 288.048 67.0742 262.428C76.4115 227.807 89.7322 206.35 106.666 198.653C122.897 191.276 143.136 185.503 166.82 181.496C167.479 181.384 168.106 181.829 168.218 182.489C168.329 183.15 167.885 183.775 167.224 183.887C143.746 187.859 123.709 193.57 107.669 200.86C71.1529 217.458 61.724 300.167 60.6402 311.024L121.696 317.974C122.33 318.047 122.799 318.598 122.77 319.235L118.928 402.92C124.562 403.842 152.053 408.143 184.671 409.858C217.946 411.609 263.448 410.951 292.055 397.989C291.758 389.162 288.98 310.759 283.466 284.295C283.363 283.799 283.578 283.292 284.006 283.022L341.888 246.511L336.044 189.057L218.588 181.069C217.92 181.024 217.416 180.445 217.461 179.777C217.507 179.11 218.079 178.586 218.753 178.65L337.229 186.708C337.818 186.748 338.293 187.207 338.353 187.795L344.377 247.014C344.423 247.471 344.207 247.916 343.817 248.161L286.008 284.626C291.752 313.564 294.479 397.86 294.506 398.716C294.521 399.202 294.245 399.649 293.805 399.854C271.731 410.119 239.578 412.986 210.557 412.986Z" fill="#0E2BAA"/>
<path d="M241.237 424.017L448.657 463.253C456.999 464.83 465.04 459.348 466.618 451.005L521.279 162.027C522.857 153.685 517.375 145.644 509.032 144.066L301.613 104.832C293.271 103.254 285.23 108.737 283.653 117.078L228.989 406.057C227.411 414.399 232.894 422.44 241.237 424.017Z" fill="#EE4622"/>
<path d="M451.519 464.734C450.5 464.734 449.468 464.64 448.431 464.443L241.011 425.208C236.658 424.385 232.887 421.917 230.391 418.257C227.895 414.597 226.974 410.184 227.798 405.832L282.461 116.853C283.284 112.501 285.753 108.729 289.412 106.234C293.072 103.738 297.485 102.816 301.837 103.641L509.257 142.876C518.242 144.575 524.169 153.268 522.47 162.253L467.808 451.231C466.304 459.178 459.328 464.734 451.519 464.734ZM298.725 105.772C295.908 105.772 293.157 106.615 290.778 108.237C287.653 110.368 285.545 113.588 284.843 117.304L230.179 406.283C229.477 409.999 230.263 413.767 232.394 416.891C234.524 420.016 237.745 422.124 241.461 422.827L448.882 462.062C456.554 463.509 463.975 458.451 465.426 450.78L520.087 161.801C521.538 154.13 516.478 146.708 508.807 145.257L301.387 106.023C300.499 105.856 299.609 105.772 298.725 105.772Z" fill="#0E2BAA"/>
<path d="M238.762 409.54L456.25 450.68L511.51 158.544L294.022 117.404H294.021L238.762 409.54Z" fill="white"/>
<path d="M456.252 451.893C456.177 451.893 456.101 451.885 456.026 451.871L238.538 410.731C237.88 410.607 237.448 409.973 237.572 409.315L292.831 117.179C292.891 116.863 293.074 116.584 293.34 116.403C293.606 116.221 293.932 116.153 294.248 116.214L511.738 157.354C512.054 157.413 512.333 157.596 512.514 157.861C512.695 158.127 512.763 158.454 512.704 158.77L457.442 450.906C457.383 451.221 457.2 451.501 456.934 451.682C456.732 451.821 456.493 451.893 456.252 451.893ZM240.179 408.575L455.286 449.265L510.095 159.511L294.989 118.821L240.179 408.575Z" fill="#0E2BAA"/>
<path d="M460.292 429.295L511.507 158.544L294.019 117.404L294.018 117.405L250.684 400.6L460.292 429.295Z" fill="#DADADA"/>
<path d="M260.312 387.729L489.921 435.097L511.939 157.969L294.45 116.828H294.449L260.312 387.729Z" fill="white"/>
<path d="M489.493 436.885C489.411 436.885 489.329 436.877 489.247 436.861L259.639 389.492C259.02 389.364 258.603 388.781 258.681 388.153L292.818 117.253C292.859 116.921 293.037 116.621 293.307 116.424C293.577 116.227 293.918 116.152 294.245 116.214L511.735 157.354C512.343 157.469 512.767 158.024 512.718 158.64L490.7 435.769C490.673 436.116 490.498 436.434 490.219 436.643C490.009 436.802 489.753 436.885 489.493 436.885ZM261.227 387.344L488.393 434.209L510.216 159.534L295.063 118.835L261.227 387.344Z" fill="#0E2BAA"/>
<path d="M341.101 126.728L360.742 130.443L383.635 134.774L402.104 138.267L403.275 138.489L421.745 141.982L444.638 146.312L464.279 150.028L461.899 162.609C461.473 164.857 458.567 166.196 455.406 165.597L438.693 162.436L412.873 157.552C412.873 157.552 408.971 159.845 399.35 158.025C389.729 156.205 386.208 152.508 386.208 152.508L360.388 147.624L343.675 144.462C340.514 143.864 338.297 141.557 338.722 139.309L341.101 126.728ZM337.129 125.977L334.75 138.559C333.897 143.068 337.487 147.405 342.922 148.434L359.636 151.595L384.398 156.28C386.299 157.766 390.685 160.5 398.599 161.997C406.322 163.457 411.005 162.545 413.308 161.748L437.941 166.408L454.655 169.569C460.091 170.598 465.016 167.87 465.869 163.361L468.249 150.78C468.664 148.587 467.222 146.473 465.029 146.058L445.388 142.342L422.496 138.013L404.026 134.518L402.855 134.297L384.385 130.803L361.492 126.473L341.851 122.757C339.659 122.343 337.545 123.784 337.129 125.977Z" fill="#DADADA"/>
<path d="M341.449 124.882L361.089 128.597L383.981 132.928L402.452 136.421L403.622 136.643L422.091 140.137L444.984 144.467L464.625 148.183L462.244 160.765C461.819 163.013 458.912 164.351 455.752 163.753L439.039 160.592L413.218 155.708C413.218 155.708 409.318 158.001 399.696 156.181C390.075 154.361 386.554 150.664 386.554 150.664L360.733 145.78L344.02 142.618C340.859 142.02 338.642 139.713 339.067 137.465L341.449 124.882ZM337.478 124.131L335.098 136.712C334.245 141.221 337.835 145.559 343.27 146.587L359.984 149.748L384.746 154.432C386.647 155.918 391.034 158.652 398.946 160.149C406.67 161.61 411.353 160.698 413.656 159.9L438.289 164.56L455.002 167.722C460.438 168.75 465.363 166.022 466.216 161.513L468.597 148.932C469.011 146.739 467.569 144.626 465.376 144.21L445.736 140.496L422.843 136.165L404.373 132.671L403.203 132.449L384.733 128.955L361.84 124.625L342.2 120.91C340.007 120.497 337.892 121.938 337.478 124.131Z" fill="#0E2BAA"/>
<path d="M350.062 131.726L353.047 115.947C353.819 111.869 357.75 109.189 361.828 109.96L383.391 114.039L429.544 122.769L451.107 126.848C455.185 127.619 457.866 131.55 457.094 135.629L454.109 151.408L350.062 131.726Z" fill="#0E40A4"/>
<path d="M454.107 152.62C454.032 152.62 453.956 152.613 453.881 152.598L349.835 132.916C349.519 132.856 349.24 132.674 349.058 132.408C348.877 132.142 348.809 131.816 348.869 131.5L351.853 115.722C352.287 113.431 353.586 111.447 355.512 110.133C357.438 108.82 359.76 108.336 362.051 108.769L451.329 125.656C453.62 126.09 455.604 127.389 456.917 129.315C458.231 131.241 458.716 133.563 458.282 135.853L455.297 151.633C455.237 151.948 455.055 152.228 454.789 152.409C454.587 152.548 454.349 152.62 454.107 152.62ZM351.476 130.76L453.141 149.992L455.9 135.403C456.213 133.749 455.863 132.072 454.915 130.681C453.967 129.29 452.533 128.352 450.879 128.039L361.601 111.151C359.948 110.84 358.269 111.188 356.879 112.136C355.487 113.085 354.549 114.518 354.236 116.173L351.476 130.76Z" fill="#0E0181"/>
<path d="M296.556 332.479L318.118 336.299L315.345 359.34L293.783 355.52L296.556 332.479ZM292.054 330.957L289.111 355.416C288.832 357.731 290.363 359.92 292.53 360.304L315.419 364.358C317.586 364.742 319.568 363.176 319.847 360.861L322.79 336.402C323.069 334.086 321.538 331.898 319.371 331.514L296.483 327.46C294.316 327.076 292.333 328.643 292.054 330.957Z" fill="#EE4622"/>
<path d="M323.535 327.229L306.067 348.004L306.08 347.988C305.806 348.309 305.592 348.44 305.459 348.496C305.322 348.547 305.257 348.554 305.109 348.533C305.003 348.514 304.849 348.467 304.633 348.342C304.417 348.218 304.143 348.014 303.83 347.703L301.83 350.034L304.127 348.042L297.019 338.717C295.947 337.313 294.051 337.066 292.782 338.165C291.514 339.265 291.353 341.295 292.423 342.699L299.532 352.024C299.613 352.13 299.736 352.27 299.831 352.364C300.482 353.013 301.181 353.567 301.935 354.004C302.688 354.439 303.499 354.755 304.342 354.904C305.509 355.115 306.726 354.982 307.802 354.53C308.884 354.08 309.814 353.343 310.581 352.443L310.593 352.427L328.061 331.652C329.153 330.353 329.025 328.31 327.775 327.088C326.525 325.867 324.627 325.929 323.535 327.229Z" fill="#0E40A4"/>
<path d="M332.582 361.867L462.389 384.863C463.382 385.039 464.291 384.321 464.418 383.259C464.546 382.198 463.844 381.195 462.852 381.019L333.045 358.023C332.052 357.848 331.142 358.566 331.015 359.626C330.888 360.688 331.589 361.692 332.582 361.867Z" fill="#0E40A4"/>
<path d="M333.644 353.045L463.451 376.041C464.445 376.217 465.353 375.499 465.481 374.438C465.608 373.376 464.907 372.373 463.913 372.198L334.107 349.203C333.115 349.027 332.205 349.744 332.078 350.805C331.95 351.866 332.651 352.87 333.644 353.045Z" fill="#0E40A4"/>
<path d="M334.707 344.223L464.514 367.219C465.508 367.394 466.417 366.676 466.543 365.615C466.671 364.554 465.969 363.55 464.977 363.375L335.169 340.38C334.176 340.204 333.267 340.921 333.14 341.983C333.012 343.043 333.714 344.047 334.707 344.223Z" fill="#0E40A4"/>
<path d="M302.751 281.014L324.313 284.834L321.54 307.876L299.978 304.056L302.751 281.014ZM298.25 279.493L295.306 303.951C295.027 306.266 296.558 308.456 298.725 308.839L321.613 312.894C323.78 313.277 325.762 311.711 326.041 309.396L328.985 284.937C329.264 282.622 327.733 280.433 325.565 280.049L302.677 275.995C300.511 275.612 298.528 277.178 298.25 279.493Z" fill="#EE4622"/>
<path d="M329.726 275.765L312.259 296.539L312.272 296.524C311.997 296.845 311.783 296.975 311.651 297.031C311.513 297.082 311.449 297.09 311.301 297.069C311.194 297.05 311.041 297.003 310.824 296.877C310.608 296.754 310.334 296.549 310.022 296.238L308.021 298.569L310.318 296.578L303.21 287.252C302.139 285.849 300.243 285.601 298.974 286.701C297.705 287.801 297.544 289.831 298.614 291.235L305.724 300.561C305.804 300.667 305.928 300.807 306.021 300.901C306.673 301.55 307.373 302.105 308.126 302.541C308.879 302.975 309.69 303.291 310.533 303.44C311.7 303.651 312.918 303.519 313.994 303.066C315.075 302.616 316.005 301.88 316.773 300.979L316.785 300.964L334.252 280.189C335.344 278.89 335.217 276.846 333.967 275.625C332.717 274.403 330.819 274.466 329.726 275.765Z" fill="#0E40A4"/>
<path d="M338.773 310.404L468.58 333.399C469.573 333.575 470.482 332.857 470.61 331.795C470.737 330.734 470.035 329.731 469.043 329.555L339.236 306.56C338.242 306.384 337.333 307.102 337.206 308.163C337.079 309.224 337.78 310.228 338.773 310.404Z" fill="#0E40A4"/>
<path d="M339.84 301.581L469.647 324.576C470.64 324.753 471.549 324.035 471.676 322.973C471.804 321.912 471.102 320.909 470.11 320.733L340.302 297.737C339.309 297.562 338.4 298.28 338.273 299.341C338.145 300.402 338.847 301.405 339.84 301.581Z" fill="#0E40A4"/>
<path d="M340.898 292.758L470.705 315.754C471.699 315.93 472.607 315.212 472.735 314.151C472.862 313.089 472.16 312.087 471.168 311.911L341.361 288.916C340.367 288.74 339.459 289.457 339.331 290.519C339.204 291.58 339.906 292.583 340.898 292.758Z" fill="#0E40A4"/>
<path d="M308.938 229.551L330.5 233.371L327.727 256.412L306.164 252.592L308.938 229.551ZM304.437 228.029L301.494 252.487C301.215 254.803 302.746 256.992 304.912 257.375L327.801 261.43C329.968 261.813 331.95 260.248 332.229 257.932L335.173 233.474C335.452 231.159 333.92 228.969 331.754 228.586L308.865 224.531C306.697 224.148 304.716 225.714 304.437 228.029Z" fill="#EE4622"/>
<path d="M335.922 224.301L318.454 245.076L318.467 245.06C318.193 245.381 317.978 245.512 317.846 245.567C317.709 245.619 317.644 245.626 317.496 245.605C317.39 245.586 317.236 245.539 317.019 245.414C316.803 245.289 316.529 245.086 316.216 244.775L314.216 247.106L316.514 245.114L309.405 235.789C308.334 234.385 306.439 234.138 305.17 235.238C303.9 236.337 303.739 238.367 304.81 239.771L311.919 249.096C312 249.202 312.123 249.342 312.217 249.436C312.868 250.084 313.568 250.639 314.322 251.075C315.075 251.511 315.887 251.826 316.728 251.975C317.895 252.186 319.113 252.054 320.189 251.601C321.27 251.151 322.201 250.415 322.967 249.514L322.98 249.499L340.447 228.724C341.54 227.425 341.412 225.382 340.162 224.16C338.913 222.939 337.014 223.002 335.922 224.301Z" fill="#0E40A4"/>
<path d="M344.969 258.939L474.775 281.935C475.769 282.11 476.677 281.393 476.805 280.332C476.932 279.27 476.231 278.267 475.238 278.091L345.431 255.096C344.438 254.921 343.529 255.639 343.401 256.699C343.275 257.761 343.976 258.763 344.969 258.939Z" fill="#0E40A4"/>
<path d="M346.027 250.117L475.834 273.112C476.827 273.288 477.736 272.571 477.863 271.509C477.991 270.448 477.289 269.445 476.297 269.268L346.49 246.273C345.496 246.098 344.588 246.815 344.46 247.876C344.332 248.938 345.034 249.941 346.027 250.117Z" fill="#0E40A4"/>
<path d="M347.086 241.294L476.893 264.29C477.886 264.465 478.795 263.748 478.923 262.686C479.05 261.625 478.348 260.622 477.355 260.446L347.549 237.45C346.555 237.275 345.647 237.992 345.519 239.053C345.391 240.115 346.093 241.118 347.086 241.294Z" fill="#0E40A4"/>
<path d="M433.511 199.065C432.369 198.821 431.113 198.792 429.743 198.977C428.373 199.162 427.126 199.407 426.003 199.713C426.236 198.943 426.508 198.191 426.818 197.456C427.129 196.722 427.43 195.992 427.721 195.269C428.219 195.171 429.081 195.014 430.303 194.797C431.526 194.582 432.811 194.318 434.156 194.01C435.501 193.702 436.758 193.363 437.928 192.999C439.097 192.636 439.891 192.277 440.309 191.922C440.612 191.613 440.853 191.323 441.031 191.053C441.208 190.784 441.342 190.437 441.433 190.013C441.538 189.524 441.546 189.04 441.462 188.561C441.377 188.082 441.217 187.631 440.985 187.205C440.751 186.78 440.437 186.414 440.042 186.108C439.648 185.802 439.205 185.596 438.716 185.492C438.291 185.401 437.659 185.326 436.819 185.266C435.979 185.207 435.042 185.159 434.009 185.126C432.975 185.092 431.892 185.091 430.761 185.121C429.628 185.153 428.566 185.216 427.573 185.31C426.58 185.405 425.707 185.543 424.951 185.723C424.197 185.903 423.673 186.114 423.382 186.359C422.415 187.21 421.557 188.314 420.806 189.672C420.055 191.03 419.396 192.475 418.83 194.009C418.264 195.542 417.772 197.083 417.356 198.631C416.939 200.18 416.602 201.558 416.344 202.765C416.274 203.091 416.171 203.615 416.034 204.336C415.897 205.058 415.754 205.888 415.603 206.828C415.454 207.769 415.301 208.76 415.147 209.801C414.992 210.842 414.858 211.829 414.745 212.76C414.63 213.691 414.558 214.511 414.526 215.22C414.493 215.929 414.518 216.413 414.6 216.669C414.744 217.109 415.024 217.596 415.439 218.128C415.855 218.66 416.336 219.156 416.887 219.614C417.437 220.073 418 220.474 418.574 220.82C419.148 221.164 419.664 221.385 420.121 221.482C420.773 221.621 421.835 221.602 423.306 221.422C424.778 221.242 426.319 220.974 427.93 220.619C429.541 220.264 431.03 219.841 432.398 219.348C433.765 218.855 434.672 218.367 435.117 217.881C435.568 217.364 435.861 216.797 435.993 216.175C436.09 215.719 436.098 215.243 436.016 214.748C435.934 214.253 435.783 213.802 435.562 213.398C435.342 212.992 435.043 212.638 434.664 212.335C434.285 212.033 433.852 211.829 433.362 211.724C432.938 211.634 432.263 211.601 431.336 211.624C430.41 211.648 429.442 211.706 428.434 211.797C427.424 211.888 426.456 211.989 425.529 212.098C424.601 212.207 423.929 212.284 423.509 212.331C423.54 211.86 423.574 211.39 423.606 210.919C423.638 210.448 423.704 209.985 423.801 209.528C423.864 209.234 423.96 208.94 424.092 208.644C424.224 208.348 424.349 208.076 424.471 207.829C425.697 207.682 426.923 207.526 428.153 207.363C429.382 207.199 430.578 206.952 431.741 206.62C432.213 206.483 432.697 206.338 433.19 206.188C433.683 206.036 434.135 205.836 434.547 205.582C434.959 205.33 435.317 205.013 435.62 204.634C435.922 204.256 436.133 203.789 436.252 203.235C436.741 200.95 435.828 199.561 433.511 199.065Z" fill="#0E40A4"/>
<path d="M460.783 190.67C460.114 189.811 459.208 189.259 458.067 189.015C456.632 188.708 455.088 188.822 453.439 189.357C451.79 189.891 450.241 190.678 448.79 191.715C447.34 192.754 446.074 193.966 444.993 195.356C443.911 196.745 443.22 198.142 442.921 199.544C442.677 200.687 442.771 201.884 443.202 203.135C443.633 204.388 444.144 205.631 444.732 206.865C445.321 208.1 445.844 209.287 446.3 210.424C446.755 211.562 446.883 212.604 446.681 213.55C446.535 214.235 446.217 214.842 445.73 215.368C445.241 215.896 444.677 216.38 444.037 216.824C443.396 217.266 442.699 217.697 441.944 218.116C441.189 218.535 440.487 218.981 439.841 219.457C439.193 219.932 438.621 220.449 438.127 221.009C437.631 221.568 437.304 222.224 437.144 222.974C436.907 224.083 437.121 224.999 437.785 225.72C438.45 226.442 439.287 226.912 440.299 227.128C441.212 227.324 442.209 227.288 443.29 227.025C444.369 226.761 445.438 226.342 446.5 225.768C447.56 225.194 448.596 224.502 449.604 223.694C450.613 222.886 451.522 222.024 452.333 221.104C453.144 220.186 453.829 219.249 454.391 218.295C454.954 217.34 455.322 216.455 455.497 215.639C455.748 214.465 455.803 213.403 455.666 212.453C455.528 211.502 455.297 210.625 454.974 209.823C454.651 209.021 454.265 208.273 453.816 207.58C453.367 206.887 452.963 206.22 452.606 205.581C452.247 204.941 451.964 204.311 451.757 203.686C451.55 203.061 451.519 202.407 451.666 201.721C451.833 200.938 452.146 200.272 452.605 199.721C453.063 199.172 453.608 198.699 454.238 198.305C454.868 197.911 455.536 197.576 456.243 197.301C456.95 197.026 457.635 196.772 458.3 196.538C459.029 196.319 459.689 195.983 460.282 195.528C460.873 195.075 461.248 194.474 461.41 193.723C461.662 192.547 461.452 191.53 460.783 190.67Z" fill="#0E40A4"/>
<path d="M355.94 171.763C355.318 170.522 354.438 169.454 353.299 168.561C352.159 167.671 350.757 167.047 349.093 166.69C348.44 166.551 347.424 166.479 346.043 166.474C344.663 166.469 343.229 166.555 341.741 166.73C340.253 166.907 338.863 167.182 337.573 167.554C336.282 167.927 335.401 168.42 334.928 169.036C334.701 169.294 334.504 169.662 334.334 170.137C334.164 170.612 333.998 171.114 333.834 171.641C333.669 172.17 333.533 172.686 333.426 173.192C333.317 173.699 333.229 174.115 333.158 174.44C332.851 175.876 332.572 177.301 332.322 178.713C332.07 180.127 331.795 181.534 331.495 182.937C331.167 184.471 330.812 185.973 330.43 187.443C330.047 188.915 329.692 190.416 329.364 191.949C329.211 192.666 329.016 193.657 328.781 194.92C328.544 196.183 328.42 197.444 328.407 198.703C328.393 199.963 328.585 201.096 328.985 202.103C329.384 203.109 330.121 203.727 331.198 203.958C332.177 204.167 333.041 203.874 333.791 203.079C334.541 202.284 335.187 201.297 335.729 200.116C336.271 198.936 336.717 197.727 337.068 196.487C337.417 195.249 337.685 194.273 337.872 193.564C338.508 193.461 339.129 193.346 339.736 193.22C340.344 193.094 340.961 192.996 341.59 192.926C341.833 193.865 342.041 195.087 342.215 196.59C342.387 198.094 342.614 199.585 342.897 201.06C343.178 202.537 343.581 203.842 344.106 204.977C344.631 206.113 345.399 206.788 346.41 207.005C347.617 207.263 348.562 207.03 349.247 206.307C349.931 205.583 350.383 204.699 350.607 203.655C350.816 202.676 350.905 201.578 350.876 200.361C350.845 199.144 350.735 197.908 350.541 196.656C350.348 195.405 350.086 194.197 349.755 193.034C349.423 191.871 349.08 190.843 348.726 189.949C350.748 188.948 352.472 187.662 353.901 186.091C355.327 184.52 356.282 182.608 356.764 180.358C357.093 178.825 357.191 177.32 357.064 175.842C356.936 174.364 356.562 173.004 355.94 171.763ZM347.564 179.107C347.384 179.955 347.027 180.662 346.496 181.232C345.964 181.801 345.341 182.282 344.627 182.675C343.911 183.068 343.156 183.367 342.362 183.572C341.568 183.778 340.803 183.922 340.069 184.003C340.645 181.465 341.144 178.894 341.565 176.289C342.182 176.113 342.85 175.983 343.567 175.898C344.284 175.813 344.97 175.839 345.623 175.979C346.504 176.168 347.092 176.524 347.391 177.047C347.688 177.572 347.746 178.259 347.564 179.107Z" fill="#0E40A4"/>
<path d="M389.379 182.589C389.298 181.398 389.068 180.357 388.686 179.467C388.303 178.578 387.733 177.959 386.974 177.613C386.064 177.198 385.213 177.194 384.422 177.603C383.63 178.012 383.04 178.641 382.652 179.49C382.416 180.007 382.233 180.546 382.105 181.11C381.975 181.675 381.868 182.249 381.785 182.835C381.444 185.027 380.994 187.177 380.434 189.287C379.873 191.397 379.137 193.454 378.222 195.457C377.903 196.155 377.484 196.973 376.965 197.909C376.445 198.846 375.849 199.691 375.174 200.446C374.498 201.202 373.746 201.798 372.883 202.15C370.577 203.091 368.421 201.418 367.967 200.586C367.513 199.756 367.229 198.809 367.116 197.743C367.002 196.678 367.02 195.599 367.169 194.504C367.317 193.41 367.472 192.488 367.632 191.738C367.947 190.27 368.334 188.852 368.797 187.484C369.259 186.116 369.772 184.758 370.334 183.411C370.684 182.565 371.046 181.713 371.417 180.854C371.788 179.995 372.068 179.125 372.257 178.245C372.382 177.657 372.454 177 372.474 176.27C372.493 175.54 372.416 174.824 372.243 174.122C372.068 173.419 371.782 172.805 371.383 172.275C370.984 171.747 370.425 171.406 369.709 171.252C368.73 171.043 367.805 171.221 366.934 171.785C366.063 172.349 365.256 173.132 364.513 174.133C363.77 175.134 363.094 176.303 362.484 177.64C361.874 178.977 361.329 180.294 360.848 181.588C360.365 182.885 359.958 184.11 359.626 185.268C359.293 186.425 359.037 187.342 358.859 188.02C358.79 188.176 358.736 188.352 358.695 188.548C358.653 188.744 358.607 188.956 358.558 189.184C358.098 191.337 357.927 193.578 358.043 195.905C358.159 198.233 358.631 200.415 359.458 202.45C360.284 204.487 361.495 206.257 363.048 207.798C366.742 211.462 374.24 211.287 375.44 210.827C376.641 210.366 377.759 209.703 378.796 208.838C379.832 207.973 380.787 206.989 381.66 205.881C382.53 204.776 383.329 203.591 384.053 202.326C384.777 201.061 385.423 199.807 385.991 198.562C386.142 198.229 386.284 197.918 386.416 197.629C386.548 197.342 386.667 197.038 386.776 196.721C387.05 196.039 387.362 195.137 387.711 194.011C388.059 192.887 388.363 191.678 388.624 190.385C388.884 189.093 389.095 187.767 389.256 186.41C389.417 185.054 389.457 183.781 389.379 182.589Z" fill="#0E40A4"/>
<path d="M410.283 208.967C409.888 208.66 409.411 208.414 408.855 208.226C408.297 208.039 407.742 207.886 407.188 207.767C405.622 207.432 403.93 207.284 402.114 207.323C400.297 207.36 398.607 207.452 397.041 207.595L397.45 205.686C397.994 203.141 398.589 200.635 399.237 198.162C399.884 195.691 400.48 193.183 401.025 190.638C401.115 190.214 401.237 189.643 401.39 188.925C401.543 188.208 401.678 187.417 401.795 186.555C401.91 185.693 401.988 184.814 402.026 183.918C402.064 183.023 402.018 182.195 401.891 181.433C401.763 180.673 401.519 180.023 401.156 179.485C400.793 178.948 400.286 178.608 399.634 178.469C398.687 178.266 397.81 178.54 397.002 179.289C396.524 179.766 396.026 180.462 395.507 181.374C394.988 182.287 394.492 183.332 394.018 184.511C393.545 185.688 393.08 186.945 392.624 188.281C392.168 189.616 391.749 190.934 391.369 192.234C390.989 193.535 390.65 194.759 390.354 195.906C390.057 197.054 389.823 198.036 389.647 198.851C389.543 199.341 389.421 200.032 389.282 200.922C389.142 201.814 389.001 202.79 388.861 203.851C388.718 204.913 388.596 206.004 388.493 207.124C388.389 208.246 388.326 209.298 388.304 210.282C388.28 211.266 388.294 212.123 388.344 212.849C388.393 213.576 388.527 214.065 388.747 214.316C389.12 214.805 389.645 215.181 390.322 215.446C390.999 215.71 391.647 215.909 392.267 216.041C392.92 216.181 393.826 216.289 394.987 216.367C396.147 216.443 397.397 216.464 398.735 216.426C400.074 216.389 401.442 216.289 402.841 216.127C404.24 215.965 405.532 215.704 406.719 215.344C407.903 214.983 408.908 214.516 409.731 213.941C410.552 213.366 411.051 212.671 411.226 211.855C411.374 211.17 411.351 210.595 411.161 210.127C410.97 209.659 410.678 209.274 410.283 208.967Z" fill="#0E40A4"/>
<path d="M446.994 131.883C446.92 131.883 446.845 131.876 446.77 131.862L435.63 129.779C434.972 129.656 434.539 129.022 434.661 128.365C434.785 127.706 435.419 127.273 436.076 127.396L447.215 129.479C447.873 129.602 448.307 130.236 448.184 130.893C448.075 131.476 447.566 131.883 446.994 131.883Z" fill="white"/>
<path d="M422.521 127.306C422.447 127.306 422.372 127.299 422.297 127.285L417.177 126.327C416.519 126.204 416.086 125.571 416.208 124.912C416.332 124.255 416.964 123.82 417.622 123.944L422.742 124.902C423.4 125.025 423.834 125.658 423.711 126.317C423.602 126.899 423.093 127.306 422.521 127.306Z" fill="white"/>
<path d="M409.617 124.892C409.543 124.892 409.468 124.885 409.393 124.871L373.431 118.144C372.773 118.021 372.339 117.388 372.462 116.73C372.586 116.072 373.217 115.64 373.876 115.761L409.838 122.488C410.497 122.611 410.93 123.244 410.807 123.902C410.698 124.485 410.189 124.892 409.617 124.892Z" fill="white"/>
<path d="M74.0334 268.552C73.933 268.552 73.8305 268.539 73.7285 268.513C73.0802 268.345 72.691 267.684 72.8596 267.036C79.61 240.999 87.8723 226.002 93.6149 218.007C94.0056 217.463 94.7637 217.34 95.3063 217.73C95.8501 218.12 95.9744 218.878 95.5842 219.422C89.9618 227.249 81.8629 241.969 75.2067 267.644C75.0641 268.19 74.5719 268.552 74.0334 268.552Z" fill="white"/>
<path d="M99.6498 213.784C99.347 213.784 99.0442 213.671 98.809 213.444C98.3267 212.98 98.3121 212.213 98.7762 211.731C100.919 209.505 102.258 208.615 102.314 208.578C102.873 208.21 103.625 208.364 103.993 208.924C104.361 209.482 104.207 210.232 103.65 210.601C103.614 210.625 102.432 211.43 100.523 213.412C100.285 213.659 99.9677 213.784 99.6498 213.784Z" fill="white"/>
<path d="M167.641 225C154.104 227.016 161.736 243.433 150.503 231.912C142.835 224.047 159.36 216.935 159.36 216.935C159.36 216.935 158.385 220.808 161.232 222.839C165.301 225.743 173.102 225.82 168.001 213.406C164.14 204.012 156.14 203.894 150.302 205.335C150.302 205.335 159.792 179.491 144.095 183.164C144.095 183.164 141.484 174.901 133.492 174.685C125.499 174.469 129.981 190.292 129.981 190.292C119.463 189.56 121.528 199.053 121.988 201.417C125.156 217.691 117.524 249.77 117.524 249.77L89.1449 317.207L63.2309 314.289C60.3365 354.472 138.306 389.037 147.911 304.351C150.254 283.694 148.775 253.658 148.775 253.658C148.775 253.658 154.968 252.722 161.16 248.186C167.353 243.65 176.565 223.671 167.641 225Z" fill="#FBB392"/>
<path d="M106.733 357.804C105.52 357.804 104.293 357.747 103.051 357.632C82.3434 355.713 60.3956 336.731 62.0184 314.202C62.0424 313.873 62.199 313.567 62.4524 313.357C62.7057 313.146 63.0335 313.046 63.3629 313.085L88.3757 315.9L116.375 249.369C116.823 247.772 124.663 219.453 121.66 204.025C120.523 198.193 121.086 193.972 123.323 191.442C124.658 189.931 126.526 189.1 128.89 188.961C128.009 185.733 126.527 178.75 129.055 175.354C130.035 174.038 131.523 173.375 133.359 173.418C140.325 173.607 143.531 179.303 144.567 181.68C147.83 181.174 150.328 181.885 151.999 183.789C156.108 188.471 153.458 199.23 152.096 203.73C160.124 202.438 166.124 205.659 169.119 212.945C171.65 219.105 171.046 222.275 169.781 223.904C171.18 224.318 171.838 225.351 172.136 226.076C174.35 231.461 166.891 245.488 161.873 249.163C156.983 252.747 152.13 254.162 150.028 254.643C150.26 260.141 151.194 286.135 149.112 304.488C146.935 323.682 141.188 338.057 132.031 347.214C125.062 354.183 116.376 357.804 106.733 357.804ZM64.3712 315.638C63.737 336.256 84.0728 353.438 103.275 355.218C126.611 357.384 142.836 338.313 146.703 304.215C149.008 283.893 147.576 254.018 147.561 253.718C147.531 253.097 147.975 252.553 148.591 252.46C148.649 252.451 154.584 251.498 160.441 247.208C165.022 243.852 171.541 231.004 169.895 226.999C169.755 226.659 169.467 225.95 167.816 226.199H167.816C162.106 227.05 160.676 230.621 159.528 233.491C158.842 235.205 158.195 236.824 156.598 237.141C154.956 237.469 153.065 236.28 149.632 232.759C147.691 230.768 146.933 228.616 147.38 226.363C148.579 220.318 158.458 216.003 158.878 215.823C159.301 215.641 159.791 215.714 160.143 216.013C160.494 216.312 160.645 216.785 160.532 217.232C160.503 217.353 159.808 220.338 161.932 221.853C163.637 223.07 166.27 223.753 167.55 222.737C168.974 221.608 168.729 218.375 166.876 213.867C164.06 207.016 158.581 204.543 150.589 206.512C150.154 206.621 149.698 206.478 149.398 206.147C149.099 205.815 149.007 205.345 149.158 204.924C150.627 200.842 153.674 189.373 150.176 185.389C148.943 183.985 146.943 183.608 144.062 184.241C143.444 184.373 142.826 184.013 142.643 183.407C142.551 183.109 140.293 176.032 133.293 175.842C132.239 175.817 131.508 176.119 130.999 176.803C128.958 179.544 130.847 187.304 131.669 189.806C131.795 190.189 131.722 190.611 131.474 190.929C131.226 191.247 130.839 191.419 130.434 191.394C128.003 191.224 126.271 191.766 125.138 193.048C123.962 194.379 122.814 197.277 124.031 203.523C127.226 219.932 119.035 248.879 118.685 250.103C118.672 250.15 118.656 250.195 118.637 250.24L90.2576 317.676C90.0495 318.172 89.536 318.474 89.0048 318.411L64.3712 315.638ZM157.995 218.944C154.941 220.569 150.395 223.614 149.757 226.837C149.472 228.279 149.999 229.663 151.368 231.066C154.885 234.674 155.9 234.813 156.125 234.763C156.432 234.702 156.961 233.38 157.277 232.59C158.152 230.403 159.473 227.102 163.129 225.166C162.195 224.844 161.301 224.381 160.524 223.826C158.61 222.46 158.079 220.481 157.995 218.944Z" fill="#0E2BAA"/>
<path d="M115.665 271.583C115.517 271.583 115.366 271.556 115.22 271.497C114.597 271.251 114.292 270.547 114.538 269.925L115.018 268.713C115.264 268.09 115.968 267.784 116.59 268.032C117.213 268.278 117.518 268.982 117.272 269.604L116.793 270.816C116.604 271.292 116.148 271.583 115.665 271.583Z" fill="white"/>
<path d="M101.791 306.644C101.642 306.644 101.491 306.617 101.345 306.559C100.722 306.313 100.417 305.608 100.664 304.985L112.989 273.84C113.235 273.217 113.94 272.911 114.562 273.16C115.185 273.406 115.49 274.11 115.243 274.733L102.918 305.878C102.729 306.354 102.273 306.644 101.791 306.644Z" fill="white"/>
<path d="M135.835 260.921C135.47 260.921 135.107 260.891 134.745 260.83C134.085 260.717 133.643 260.09 133.756 259.43C133.869 258.77 134.496 258.322 135.156 258.441C137.587 258.859 140.848 256.767 143.468 255.087C145.313 253.904 146.907 252.882 148.291 252.567C148.941 252.416 149.593 252.827 149.742 253.48C149.89 254.132 149.481 254.782 148.829 254.93C147.858 255.151 146.361 256.111 144.776 257.127C141.986 258.918 138.862 260.921 135.835 260.921Z" fill="#0E2BAA"/>
<path d="M123.068 257.931C122.861 257.931 122.651 257.878 122.459 257.766C119.654 256.131 116.779 250.936 116.46 250.349C116.14 249.76 116.358 249.025 116.947 248.705C117.535 248.385 118.271 248.604 118.59 249.191C119.368 250.622 121.798 254.574 123.68 255.672C124.258 256.009 124.454 256.752 124.116 257.33C123.891 257.715 123.485 257.931 123.068 257.931Z" fill="#0E2BAA"/>
<path d="M132.642 218.723C132.567 218.723 132.49 218.716 132.414 218.702C131.756 218.577 131.325 217.941 131.45 217.284C135.015 198.589 132.349 193.492 130.442 192.117C128.625 190.806 126.342 192.058 126.319 192.071C125.735 192.396 124.996 192.188 124.67 191.603C124.343 191.019 124.552 190.281 125.136 189.954C125.284 189.872 128.805 187.948 131.859 190.151C136.079 193.193 136.741 202.474 133.831 217.738C133.72 218.319 133.212 218.723 132.642 218.723Z" fill="#0E2BAA"/>
<path d="M141.792 216.995C141.739 216.995 141.685 216.991 141.631 216.984C140.967 216.897 140.5 216.287 140.589 215.623C140.624 215.364 144.017 189.535 141.458 181.029C141.265 180.388 141.628 179.712 142.269 179.519C142.909 179.327 143.587 179.69 143.779 180.331C146.488 189.334 143.136 214.861 142.992 215.943C142.91 216.552 142.39 216.995 141.792 216.995Z" fill="#0E2BAA"/>
<path d="M149.568 216.563C149.029 216.563 148.538 216.202 148.395 215.656C148.327 215.395 146.76 209.198 149.543 203.98C149.858 203.389 150.592 203.165 151.183 203.481C151.774 203.796 151.997 204.53 151.682 205.121C149.34 209.512 150.727 214.99 150.741 215.045C150.91 215.693 150.522 216.355 149.874 216.524C149.772 216.551 149.669 216.563 149.568 216.563Z" fill="#0E2BAA"/>
<path d="M158.295 217.842C158.082 217.842 157.868 217.827 157.654 217.799C155.151 217.469 153.607 215.269 153.542 215.175C153.163 214.624 153.301 213.869 153.852 213.489C154.402 213.11 155.155 213.247 155.535 213.794C155.562 213.831 156.567 215.219 157.984 215.397C158.792 215.503 159.649 215.173 160.524 214.428C161.034 213.994 161.798 214.055 162.232 214.565C162.666 215.074 162.605 215.839 162.096 216.273C160.872 217.316 159.596 217.842 158.295 217.842Z" fill="#0E2BAA"/>
<path d="M87.8607 325.222C87.1911 325.222 86.6484 324.679 86.6484 324.009C86.6484 322.182 87.8378 317.443 87.9736 316.908C88.1386 316.259 88.7973 315.866 89.4466 316.032C90.0954 316.196 90.4877 316.855 90.3233 317.505C89.9757 318.876 89.0725 322.717 89.0725 324.009C89.073 324.679 88.5304 325.222 87.8607 325.222Z" fill="#0E2BAA"/>
<path d="M212.493 162.099C190.596 142.582 171.456 157.472 171.456 157.472L165.32 183.92C165.32 183.92 170.505 216.827 202.188 215.387C226.672 214.274 218.03 188.312 218.03 188.312L212.493 162.099Z" fill="#FBB392"/>
<path d="M216.653 181.776L212.497 162.099C190.6 142.582 171.46 157.472 171.46 157.472L168.293 170.406C187.646 204.442 217.025 193.785 216.653 181.776Z" fill="#EDA084"/>
<path d="M157.013 137.436L157 137.455C156.965 137.51 156.953 137.528 156.953 137.528C156.953 137.528 157.01 137.441 157.013 137.436Z" fill="url(#paint0_radial_2951_166)"/>
<path fill-rule="evenodd" clip-rule="evenodd" d="M137.696 129.131C144.38 150.478 161.086 150.888 161.086 150.888C161.086 150.888 171.499 185.141 209.48 176.87C226.947 173.066 242.586 164.303 242.792 139.942C242.917 125.086 229.746 78.2795 229.746 78.2795C229.746 78.2795 219.259 44.5881 170.837 60.2772C144.308 68.8715 127.366 96.1378 137.696 129.131Z" fill="#FBB392"/>
<path d="M182.199 114.016C181.684 112.428 182.555 110.725 184.143 110.21C185.731 109.696 187.434 110.566 187.949 112.154C188.096 112.61 190.1 118.794 190.248 119.25C190.762 120.838 189.892 122.541 188.304 123.056C186.716 123.571 185.013 122.7 184.498 121.112C184.35 120.656 182.347 114.472 182.199 114.016Z" fill="#0E0181"/>
<path d="M211.414 104.552C210.899 102.964 211.769 101.261 213.357 100.746C214.945 100.232 216.649 101.102 217.163 102.69C217.311 103.146 219.315 109.33 219.463 109.786C219.977 111.374 219.107 113.078 217.519 113.592C215.931 114.107 214.227 113.236 213.713 111.648C213.565 111.192 211.561 105.008 211.414 104.552Z" fill="#0E0181"/>
<path d="M210.983 121.215C211.02 121.259 212.034 122.55 213.012 124.284C213.502 125.149 213.982 126.126 214.329 127.094C214.679 128.061 214.889 129.019 214.886 129.822C214.886 130.247 214.83 130.627 214.723 130.959C214.555 131.458 214.294 131.861 213.8 132.25C213.305 132.633 212.546 132.992 211.403 133.221C210.655 133.371 210.17 134.098 210.32 134.846C210.47 135.594 211.197 136.078 211.945 135.928C212.912 135.734 213.757 135.45 214.486 135.071C215.581 134.508 216.416 133.705 216.932 132.771C217.451 131.838 217.649 130.815 217.648 129.821C217.646 128.543 217.337 127.288 216.908 126.103C216.261 124.328 215.328 122.702 214.555 121.498C213.781 120.296 213.165 119.52 213.143 119.494C212.668 118.898 211.8 118.799 211.203 119.274C210.607 119.749 210.509 120.617 210.983 121.215Z" fill="#0E0181"/>
<path d="M157.169 135.21C157.152 135.165 156.277 132.65 154.806 130.058C154.066 128.761 153.183 127.441 152.115 126.375C151.579 125.843 150.993 125.373 150.329 125.019C149.668 124.667 148.915 124.434 148.109 124.434C147.551 124.434 146.977 124.549 146.43 124.779C145.883 125.008 145.364 125.347 144.874 125.782C144.304 126.289 144.252 127.161 144.759 127.731C145.265 128.302 146.138 128.354 146.708 127.847C147.008 127.582 147.273 127.42 147.499 127.325C147.727 127.23 147.917 127.197 148.109 127.196C148.383 127.196 148.68 127.27 149.033 127.457C149.648 127.777 150.377 128.465 151.049 129.347C152.064 130.666 152.965 132.383 153.588 133.752C153.901 134.437 154.147 135.036 154.313 135.461C154.397 135.673 154.46 135.842 154.502 135.955C154.523 136.011 154.538 136.055 154.549 136.083L154.56 136.113L154.562 136.12C154.814 136.84 155.602 137.219 156.321 136.968C157.041 136.716 157.421 135.929 157.169 135.21Z" fill="#0E0181"/>
<path d="M211.482 143.159C211.427 143.209 210.506 144.011 209.03 144.781C207.552 145.553 205.532 146.285 203.262 146.283C201.552 146.281 199.691 145.884 197.699 144.747C195.709 143.608 193.578 141.71 191.432 138.654C190.994 138.03 190.133 137.879 189.509 138.318C188.885 138.756 188.735 139.617 189.173 140.241C191.501 143.558 193.922 145.768 196.328 147.144C198.732 148.522 201.114 149.048 203.262 149.044C206.219 149.042 208.716 148.081 210.476 147.14C212.237 146.195 213.277 145.259 213.336 145.206C213.902 144.695 213.946 143.821 213.434 143.256C212.921 142.691 212.048 142.647 211.482 143.159Z" fill="#0E0181"/>
<path d="M188.947 127.668C189.388 129.201 187.148 131.19 183.944 132.112C180.741 133.035 177.786 132.54 177.345 131.008C176.903 129.476 179.143 127.486 182.347 126.564C185.551 125.642 188.505 126.135 188.947 127.668Z" fill="#EE4622"/>
<path d="M236.486 114.184C236.927 115.717 234.688 117.706 231.484 118.629C228.28 119.551 225.325 119.056 224.884 117.525C224.442 115.992 226.682 114.003 229.886 113.08C233.09 112.157 236.045 112.652 236.486 114.184Z" fill="#EE4622"/>
<path d="M148.469 136.527C147.858 136.527 147.333 136.067 147.265 135.447C147.083 133.778 146.682 128.234 149.174 126.935C150.337 126.329 151.714 126.709 153.265 128.066C153.769 128.507 153.819 129.273 153.379 129.776C152.938 130.281 152.173 130.331 151.669 129.891C150.69 129.034 150.295 129.083 150.293 129.085C149.746 129.339 149.353 132.204 149.676 135.184C149.748 135.849 149.267 136.447 148.602 136.519C148.557 136.525 148.512 136.527 148.469 136.527Z" fill="#0E0181"/>
<path d="M200.033 179.763C190.355 179.763 182.69 176.686 182.217 176.492C181.598 176.238 181.302 175.531 181.555 174.912C181.809 174.293 182.515 173.996 183.136 174.249C183.3 174.316 199.71 180.883 214.31 174.547C229.414 167.992 250.1 159.015 236.816 114.076C236.626 113.434 236.993 112.76 237.634 112.571C238.278 112.38 238.951 112.747 239.141 113.389C253.033 160.385 230.311 170.246 215.274 176.771C210.12 179.007 204.829 179.763 200.033 179.763Z" fill="#0E2BAA"/>
<path d="M199.959 216.993C199.049 216.993 198.113 216.964 197.147 216.904C182.096 215.978 173.944 206.915 169.757 199.475C165.261 191.49 164.301 183.829 164.263 183.507C164.247 183.375 164.253 183.241 164.28 183.11L168.205 164.702L168.073 162.931C168.023 162.264 168.524 161.682 169.192 161.632C169.866 161.579 170.441 162.084 170.491 162.752L170.635 164.696C170.644 164.81 170.636 164.926 170.612 165.038L166.696 183.409C166.874 184.625 168.007 191.457 171.907 198.354C177.571 208.369 186.113 213.797 197.296 214.484C205.656 215.001 211.62 213.172 215.028 209.053C220.192 202.813 217.818 193.193 217.794 193.097C217.789 193.077 217.784 193.057 217.78 193.037L214.324 176.044C214.191 175.388 214.614 174.748 215.27 174.614C215.923 174.481 216.565 174.905 216.699 175.561L220.15 192.527C220.344 193.302 222.749 203.509 216.906 210.586C213.39 214.843 207.697 216.993 199.959 216.993Z" fill="#0E2BAA"/>
<path d="M233.01 90.2388L237.916 112.745C237.916 112.745 242.012 108.692 242.084 103.436C242.156 98.1796 240.896 94.7893 245.036 93.4272C246.831 92.8367 248.901 91.8569 247.34 89.6826C245.176 86.668 239.563 84.642 239.563 84.642C253.245 75.1371 247.548 51.8543 241.435 54.615C228.042 60.6635 212.273 47.4864 212.273 47.4864C229.123 38.8458 185.918 34.0929 155.027 48.1347C125.554 61.5313 128.384 82.6263 128.384 82.6263C109.663 126.335 150.707 155.281 156.971 160.466C163.236 165.65 168.427 162.247 168.427 162.247L160.571 146.26C160.571 146.26 152.146 151.013 143.404 136.103C137.474 125.987 147.825 107.053 159.902 131.977C159.902 131.977 162.414 133.632 163.445 127.253C164.476 120.873 159.923 116.037 159.923 116.037C170.229 109.998 166.98 86.9458 166.98 86.9458C166.98 86.9458 183.049 94.2196 175.981 83.3454C175.981 83.3454 211.769 91.6982 207.304 83.7772L233.01 90.2388Z" fill="#0E40A4"/>
<path d="M164.147 164.57C161.943 164.571 159.174 163.861 156.199 161.399C155.843 161.104 155.373 160.732 154.806 160.283C149.998 156.471 138.735 147.545 130.796 134.256C120.861 117.628 119.634 100.196 127.148 82.4368C127.037 81.1017 126.868 76.1615 129.54 69.9262C132.34 63.3897 138.948 54.1117 154.526 47.0305C178.896 35.9528 213.76 35.932 216.977 42.5876C217.566 43.8072 217.518 45.6075 214.457 47.6226C218.52 50.5472 230.631 58.1649 240.937 53.5098C243.051 52.5555 245.264 53.6617 246.855 56.4697C250.153 62.2888 251.056 76.4076 241.938 84.3286C243.894 85.2417 246.811 86.8651 248.326 88.9749C249.058 89.9952 249.277 90.9822 248.975 91.9073C248.49 93.3958 246.818 94.1159 245.416 94.5774C243.125 95.3308 243.066 96.5577 243.227 100.323C243.267 101.256 243.312 102.314 243.296 103.452C243.218 109.139 238.95 113.426 238.768 113.606C238.455 113.917 237.998 114.033 237.572 113.907C237.148 113.782 236.826 113.435 236.732 113.003L231.986 91.2309L208.868 85.4202C208.789 85.9301 208.574 86.313 208.387 86.5622C207.283 88.0326 204.239 89.4499 190.357 87.3359C185.68 86.6236 181.118 85.7022 178.36 85.1127C179.053 86.6684 179.351 88.2959 178.347 89.465C176.547 91.5597 171.685 90.1539 168.413 88.8677C168.935 94.5832 169.57 110.27 161.694 116.304C163.071 118.193 165.468 122.337 164.642 127.446C164.126 130.643 163.162 132.51 161.695 133.155C160.717 133.584 159.759 133.334 159.236 132.989C159.054 132.869 158.908 132.702 158.812 132.505C155.3 125.256 151.463 121.014 148.285 120.868C146.389 120.779 145.138 122.176 144.421 123.361C142.68 126.245 142.098 131.476 144.452 135.49C152.422 149.084 159.681 145.363 159.985 145.199C160.274 145.042 160.62 145.007 160.935 145.108C161.249 145.208 161.513 145.429 161.659 145.725L169.515 161.712C169.786 162.26 169.603 162.924 169.092 163.26C168.955 163.351 167.036 164.57 164.147 164.57ZM197.751 40.443C186.014 40.443 170.011 42.6548 155.529 49.2376C143.824 54.5582 135.629 61.9932 131.829 70.74C128.968 77.328 129.58 82.417 129.587 82.4675C129.614 82.6824 129.585 82.9035 129.5 83.1028C118.035 109.868 127.057 135.196 156.313 158.383C156.896 158.845 157.38 159.228 157.746 159.532C161.757 162.851 165.191 162.269 166.8 161.682L159.978 147.801C157.156 148.677 149.776 149.364 142.361 136.716C139.503 131.843 140.191 125.679 142.347 122.109C143.84 119.637 145.979 118.334 148.398 118.447C151.286 118.58 155.754 120.87 160.739 130.928C160.74 130.927 160.742 130.926 160.743 130.926C160.904 130.843 161.732 130.268 162.25 127.06C163.17 121.371 159.082 116.911 159.04 116.866C158.79 116.597 158.674 116.227 158.727 115.863C158.78 115.499 158.995 115.178 159.312 114.991C168.797 109.434 165.813 87.3375 165.781 87.1153C165.72 86.6777 165.901 86.2412 166.255 85.9764C166.608 85.7116 167.077 85.66 167.481 85.8416C171.473 87.6465 175.86 88.6398 176.509 87.8848C176.653 87.7168 176.68 86.6429 174.967 84.006C174.697 83.5913 174.706 83.0544 174.991 82.6496C175.274 82.2443 175.778 82.0533 176.258 82.1652C176.329 82.1818 183.394 83.8234 190.735 84.941C204.554 87.0446 206.295 85.312 206.448 85.1075C206.539 84.9863 206.398 84.6361 206.25 84.3728C206.012 83.9509 206.048 83.4274 206.342 83.0424C206.636 82.6569 207.13 82.4847 207.601 82.6022L233.307 89.0633C233.754 89.1757 234.098 89.5311 234.196 89.9806L238.561 110.007C239.611 108.46 240.836 106.091 240.873 103.419C240.887 102.351 240.846 101.373 240.805 100.427C240.656 96.936 240.515 93.6388 244.658 92.2756C246.37 91.7127 246.632 91.2772 246.671 91.157C246.706 91.0472 246.643 90.7881 246.356 90.3896C244.441 87.7199 239.205 85.801 239.153 85.7823C238.727 85.6278 238.422 85.249 238.363 84.7995C238.305 84.3499 238.501 83.9056 238.873 83.647C248.436 77.0033 247.769 62.999 244.746 57.6664C244.204 56.7101 243.115 55.1867 241.936 55.7205C228.009 62.0104 212.165 48.9754 211.497 48.4171C211.185 48.1564 211.024 47.7568 211.07 47.3525C211.114 46.9483 211.359 46.5939 211.721 46.4082C214.149 45.1626 215.017 44.1022 214.794 43.6433C213.947 41.8904 207.244 40.443 197.751 40.443Z" fill="#0E2BAA"/>
<path d="M133.279 78.941C132.857 78.941 132.445 78.7193 132.223 78.3249C131.894 77.7422 132.099 77.0034 132.682 76.674C133.238 76.3603 146.434 69.0048 159.65 70.7671C160.314 70.8555 160.78 71.4653 160.691 72.1287C160.603 72.7926 159.988 73.2577 159.33 73.1698C146.944 71.5184 134.005 78.7115 133.875 78.7844C133.686 78.8905 133.481 78.941 133.279 78.941Z" fill="#0E2BAA"/>
<path d="M238.204 62.4856C237.648 62.4856 237.147 62.1011 237.021 61.5361C236.876 60.8826 237.288 60.2353 237.942 60.0902C239.254 59.7988 240.487 59.3617 241.607 58.7915C242.203 58.4871 242.933 58.7254 243.237 59.3217C243.541 59.9185 243.304 60.6479 242.707 60.9518C241.405 61.6152 239.979 62.1214 238.468 62.457C238.379 62.4762 238.29 62.4856 238.204 62.4856Z" fill="white"/>
<path d="M233.509 62.9703H233.508C233.156 62.9698 232.805 62.963 232.453 62.949C231.785 62.923 231.263 62.359 231.29 61.6904C231.316 61.0218 231.885 60.5036 232.548 60.5265C232.869 60.539 233.19 60.5457 233.51 60.5463C234.179 60.5468 234.721 61.09 234.72 61.7596C234.72 62.4282 234.177 62.9703 233.509 62.9703Z" fill="white"/>
<path d="M228.721 62.5573C228.657 62.5573 228.591 62.5521 228.524 62.5412C219.653 61.0906 211.904 56.4974 211.578 56.3028C211.004 55.9594 210.817 55.2154 211.161 54.641C211.503 54.066 212.25 53.8798 212.822 54.2227C212.898 54.2679 220.513 58.7753 228.915 60.1489C229.576 60.2571 230.024 60.8799 229.916 61.5406C229.819 62.1353 229.305 62.5573 228.721 62.5573Z" fill="white"/>
<path d="M184.781 45.8183C184.175 45.8183 183.652 45.3651 183.579 44.7485C183.5 44.0841 183.975 43.4811 184.64 43.4025C186.342 43.2012 188.074 43.0404 189.79 42.9249C190.467 42.8822 191.037 43.3854 191.081 44.0529C191.126 44.721 190.621 45.2985 189.954 45.3438C188.278 45.4561 186.587 45.6133 184.926 45.8099C184.877 45.8157 184.829 45.8183 184.781 45.8183Z" fill="white"/>
<path d="M177.629 46.9355C177.06 46.9355 176.553 46.5338 176.441 45.9547C176.313 45.2976 176.741 44.6612 177.398 44.5332C178.064 44.4037 178.749 44.2778 179.452 44.1565C180.115 44.0426 180.738 44.4854 180.852 45.1451C180.965 45.8049 180.523 46.4318 179.863 46.5458C179.178 46.6639 178.509 46.7867 177.862 46.9131C177.783 46.9282 177.706 46.9355 177.629 46.9355Z" fill="white"/>
<path d="M162.803 51.2904C162.345 51.2904 161.907 51.0297 161.702 50.5864C161.421 49.9787 161.686 49.2592 162.293 48.9782C162.393 48.9319 164.797 47.8278 169.122 46.5474C169.762 46.3575 170.439 46.7232 170.629 47.3653C170.819 48.0073 170.452 48.6816 169.81 48.8715C165.673 50.0963 163.333 51.1676 163.311 51.1785C163.146 51.2545 162.973 51.2904 162.803 51.2904Z" fill="white"/>
<path d="M237.871 93.6229C235.186 93.6229 232.572 91.461 232.22 91.1582C231.712 90.7222 231.653 89.9568 232.09 89.449C232.524 88.9417 233.289 88.8824 233.798 89.3174C234.597 89.9979 237.215 91.769 238.733 91.0099C239.334 90.7102 240.059 90.9537 240.359 91.5521C240.659 92.1509 240.416 92.8788 239.817 93.1785C239.185 93.4944 238.526 93.6229 237.871 93.6229Z" fill="#0E2BAA"/>
<path d="M164.245 181.518C155.853 183.679 165.77 200.96 168.186 199.808C170.602 198.656 172.636 179.358 164.245 181.518Z" fill="white"/>
<path d="M167.943 201.075C167.468 201.075 166.873 200.896 166.168 200.342C163.426 198.186 158.79 189.86 159.898 184.59C160.364 182.376 161.765 180.908 163.95 180.346C166.958 179.57 169.375 181.029 170.58 184.344C172.439 189.462 171.288 199.676 168.714 200.903C168.51 201 168.252 201.075 167.943 201.075ZM164.554 182.692C163.546 182.952 162.201 183.597 162.153 186.194C162.067 191.008 166.239 197.478 167.768 198.528C168.816 196.773 170.095 188.303 167.879 184.22C167.094 182.773 166.068 182.303 164.554 182.692Z" fill="#0E2BAA"/>
<path d="M179.91 190.811C174.49 188.159 170.77 202.561 172.601 203.023C174.432 203.485 185.329 193.463 179.91 190.811Z" fill="white"/>
<path d="M172.668 204.241C172.538 204.241 172.416 204.227 172.301 204.199C171.917 204.101 171.239 203.773 171.005 202.659C170.492 200.219 172.387 192.964 175.796 190.31C177.25 189.177 178.9 188.969 180.44 189.722C182.457 190.709 183.111 192.647 182.234 195.037C180.951 198.543 175.293 204.241 172.668 204.241ZM178.582 191.696C178.159 191.696 177.649 191.875 177.032 192.437C174.701 194.565 173.386 199.604 173.331 201.562C175.288 200.455 179.748 196.217 180.166 193.429C180.281 192.663 180.059 192.234 179.375 191.9C179.152 191.791 178.89 191.696 178.582 191.696Z" fill="#0E2BAA"/>
<defs>
<radialGradient id="paint0_radial_2951_166" cx="0" cy="0" r="1" gradientUnits="userSpaceOnUse" gradientTransform="translate(235.889 93.2301) rotate(-5.15601) scale(123.716 123.716)">
<stop stop-color="#FFC5CC"/>
<stop offset="0.0307" stop-color="#FFC5CC"/>
<stop offset="0.4521" stop-color="#FFB1CC"/>
<stop offset="0.679" stop-color="#FFABC5"/>
<stop offset="0.9977" stop-color="#FF9BB3"/>
<stop offset="1" stop-color="#FF9BB3"/>
</radialGradient>
</defs>
</svg>
