<svg width="30" height="31" viewBox="0 0 30 31" fill="none" xmlns="http://www.w3.org/2000/svg">
<path d="M15.2322 30.187C23.3761 30.187 29.978 23.5851 29.978 15.4412C29.978 7.29726 23.3761 0.695312 15.2322 0.695312C7.08827 0.695312 0.486328 7.29726 0.486328 15.4412C0.486328 23.5851 7.08827 30.187 15.2322 30.187Z" fill="black"/>
<path d="M15.2334 9.74708C17.0882 9.74708 17.3077 9.7539 18.0406 9.78754C18.7179 9.81846 19.0857 9.93165 19.3307 10.0267C19.6548 10.1526 19.8862 10.3031 20.1294 10.5463C20.3726 10.7895 20.5231 11.0209 20.649 11.345C20.7441 11.59 20.8573 11.9578 20.8882 12.6352C20.9213 13.3675 20.9286 13.5871 20.9286 15.4423C20.9286 17.2971 20.9213 17.5167 20.8882 18.2495C20.8573 18.9268 20.7441 19.2946 20.649 19.5392C20.5231 19.8638 20.3726 20.0947 20.1294 20.3379C19.8862 20.5811 19.6548 20.7316 19.3307 20.8575C19.0857 20.9525 18.7179 21.0657 18.0406 21.0966C17.3082 21.1298 17.0886 21.1371 15.2334 21.1371C13.3782 21.1371 13.1591 21.1303 12.4262 21.0966C11.7489 21.0657 11.3811 20.9525 11.1365 20.8575C10.812 20.7316 10.581 20.5811 10.3378 20.3379C10.0946 20.0947 9.94412 19.8633 9.8182 19.5392C9.72319 19.2946 9.61 18.9268 9.57908 18.2495C9.5459 17.5171 9.53862 17.2975 9.53862 15.4423C9.53862 13.5875 9.5459 13.368 9.57908 12.6352C9.61 11.9578 9.72319 11.59 9.8182 11.345C9.94412 11.0209 10.0946 10.7895 10.3378 10.5463C10.581 10.3031 10.8124 10.1526 11.1365 10.0267C11.3811 9.93165 11.7493 9.81846 12.4262 9.78754C13.1591 9.7539 13.3786 9.74708 15.2334 9.74708ZM15.2334 8.49512C13.3468 8.49512 13.1104 8.5033 12.3694 8.53694C11.6298 8.57058 11.1252 8.68832 10.6833 8.8597C10.2264 9.03745 9.83911 9.27475 9.4527 9.66116C9.06629 10.0471 8.82899 10.4349 8.6517 10.8918C8.47986 11.3336 8.36257 11.8387 8.32893 12.5779C8.29484 13.3189 8.28711 13.5553 8.28711 15.4419C8.28711 17.3284 8.29484 17.5648 8.32893 18.3058C8.36257 19.0455 8.48032 19.5501 8.6517 19.9919C8.82899 20.4488 9.06675 20.8361 9.4527 21.2226C9.83911 21.609 10.2264 21.8463 10.6833 22.024C11.1252 22.1954 11.6302 22.3131 12.3694 22.3468C13.1104 22.3804 13.3468 22.3886 15.2334 22.3886C17.12 22.3886 17.3564 22.3804 18.0974 22.3468C18.837 22.3131 19.3416 22.1954 19.7835 22.024C20.2404 21.8467 20.6277 21.609 21.0141 21.2226C21.4 20.8361 21.6378 20.4488 21.8155 19.9919C21.9874 19.5501 22.1047 19.045 22.1383 18.3058C22.172 17.5648 22.1801 17.3284 22.1801 15.4419C22.1801 13.5553 22.1724 13.3189 22.1383 12.5779C22.1047 11.8382 21.9869 11.3336 21.8155 10.8918C21.6378 10.4349 21.4005 10.0476 21.0141 9.66116C20.6277 9.27475 20.2404 9.03745 19.7835 8.8597C19.3416 8.68832 18.8366 8.57058 18.0974 8.53694C17.3564 8.5033 17.12 8.49512 15.2334 8.49512Z" fill="white"/>
<path d="M15.2333 11.875C13.263 11.875 11.666 13.472 11.666 15.4422C11.666 17.4125 13.263 19.0095 15.2333 19.0095C17.2035 19.0095 18.8005 17.4125 18.8005 15.4422C18.8005 13.472 17.2035 11.875 15.2333 11.875ZM15.2333 17.7575C13.9545 17.7575 12.9175 16.7206 12.9175 15.4418C12.9175 14.163 13.954 13.1261 15.2333 13.1261C16.512 13.1261 17.549 14.1625 17.549 15.4418C17.549 16.721 16.512 17.7575 15.2333 17.7575Z" fill="white"/>
<path d="M19.7749 11.7332C19.7749 12.1937 19.4017 12.5669 18.9412 12.5669C18.4806 12.5669 18.1074 12.1937 18.1074 11.7332C18.1074 11.2726 18.4806 10.8994 18.9412 10.8994C19.4017 10.8999 19.7749 11.2731 19.7749 11.7332Z" fill="white"/>
</svg>
