<svg width="30" height="31" viewBox="0 0 30 31" fill="none" xmlns="http://www.w3.org/2000/svg">
<path d="M14.7732 30.187C22.9171 30.187 29.5191 23.5851 29.5191 15.4412C29.5191 7.29726 22.9171 0.695312 14.7732 0.695312C6.62929 0.695312 0.0273438 7.29726 0.0273438 15.4412C0.0273438 23.5851 6.62929 30.187 14.7732 30.187Z" fill="black"/>
<path d="M21.5059 16.8966V21.8745H18.6197V17.2298C18.6197 16.0638 18.2028 15.2673 17.1582 15.2673C16.3608 15.2673 15.8871 15.8038 15.6775 16.3229C15.6016 16.5084 15.5821 16.7661 15.5821 17.0262V21.8745H12.6958C12.6958 21.8745 12.7344 14.0081 12.6958 13.1939H15.5825V14.4241C15.5766 14.4336 15.5684 14.4431 15.5634 14.4527H15.5825V14.4241C15.9662 13.834 16.6499 12.9902 18.1837 12.9902C20.0826 12.9902 21.5059 14.2308 21.5059 16.8966ZM9.67635 9.00977C8.68896 9.00977 8.04297 9.65803 8.04297 10.5095C8.04297 11.3428 8.67032 12.0097 9.63816 12.0097H9.6568C10.6633 12.0097 11.2893 11.3428 11.2893 10.5095C11.2706 9.65803 10.6642 9.00977 9.67635 9.00977ZM8.21481 21.8749H11.1002V13.1944H8.21481V21.8749Z" fill="#EFF0F0"/>
</svg>
