<svg width="60" height="60" viewBox="0 0 60 60" fill="none" xmlns="http://www.w3.org/2000/svg">
<mask id="path-1-inside-1_2717_36" fill="white">
<path d="M41.2126 40.9047L42.6141 39.4293L39.2677 36.251L37.8662 37.7263L41.2126 40.9047ZM47.2253 38.8081L53.1036 42.1917L55.406 38.1918L49.5277 34.8083L47.2253 38.8081ZM54.238 49.2066L49.8671 53.8083L53.2134 56.9866L57.5843 52.3849L54.238 49.2066ZM47.2373 55.2827C42.8221 55.7187 31.3015 55.3467 18.7969 42.1816L15.4506 45.3599C29.0788 59.7081 42.079 60.4296 47.6905 59.8758L47.2373 55.2827ZM18.7969 42.1816C6.87074 29.6254 4.87025 19.0342 4.62091 14.3887L0.0123229 14.6361C0.317697 20.3258 2.73356 31.9714 15.4506 45.3599L18.7969 42.1816ZM23.0286 21.7603L23.911 20.8313L20.5647 17.6528L19.6823 18.5819L23.0286 21.7603ZM24.6042 9.26392L20.7245 3.77643L16.956 6.44087L20.8359 11.9283L24.6042 9.26392ZM7.59266 2.5934L2.76328 7.67781L6.10957 10.8563L10.9389 5.77185L7.59266 2.5934ZM21.3554 20.1711C19.6823 18.5819 19.6801 18.5841 19.678 18.5864C19.6772 18.5872 19.6751 18.5895 19.6736 18.591C19.6707 18.5941 19.6677 18.5973 19.6647 18.6006C19.6587 18.6071 19.6524 18.6139 19.6459 18.621C19.633 18.6352 19.6193 18.6505 19.6049 18.6671C19.5762 18.7002 19.5445 18.738 19.5107 18.7808C19.4431 18.8663 19.3666 18.9713 19.2863 19.0967C19.1253 19.3483 18.9508 19.6795 18.8029 20.095C18.5023 20.9398 18.3385 22.0585 18.5432 23.4556C18.9454 26.2005 20.744 29.8918 25.4433 34.8393L28.7896 31.661C24.3971 27.0362 23.3151 24.188 23.1097 22.7865C23.0106 22.1104 23.1113 21.7541 23.1511 21.6423C23.1735 21.5794 23.1881 21.5619 23.1738 21.5843C23.1668 21.5951 23.153 21.6155 23.1297 21.6449C23.1181 21.6596 23.1041 21.6766 23.0873 21.6959C23.079 21.7055 23.0699 21.7156 23.0601 21.7264C23.0552 21.7318 23.0502 21.7373 23.0449 21.743C23.0423 21.7458 23.0396 21.7487 23.0369 21.7515C23.0355 21.753 23.0334 21.7552 23.0328 21.7559C23.0307 21.7581 23.0286 21.7603 21.3554 20.1711ZM25.4433 34.8393C30.129 39.7724 33.6676 41.7117 36.3675 42.1502C37.753 42.3751 38.8745 42.1954 39.7237 41.8606C40.1388 41.697 40.4671 41.5047 40.7135 41.3299C40.8366 41.2425 40.9391 41.1597 41.0215 41.0874C41.0631 41.0511 41.0994 41.0173 41.1311 40.9865C41.147 40.9714 41.1618 40.9567 41.1754 40.9431C41.1821 40.9364 41.1886 40.9296 41.1947 40.9231C41.1978 40.9201 41.2009 40.917 41.204 40.9139C41.2055 40.9124 41.2077 40.9099 41.2083 40.9093C41.2104 40.9068 41.2126 40.9047 39.5394 39.3155C37.8662 37.7263 37.8684 37.7242 37.8705 37.722C37.8712 37.7211 37.8733 37.7189 37.8745 37.7174C37.8773 37.7146 37.8801 37.7119 37.8828 37.7091C37.8884 37.7035 37.8936 37.698 37.8985 37.6928C37.909 37.6826 37.9188 37.6728 37.9281 37.6639C37.9465 37.646 37.9635 37.6306 37.9782 37.6177C38.0075 37.5919 38.0293 37.5752 38.0435 37.5654C38.0724 37.5448 38.0693 37.5519 38.0302 37.5672C37.9708 37.5906 37.6912 37.6894 37.1075 37.5946C35.8688 37.3934 33.1962 36.3002 28.7896 31.661L25.4433 34.8393ZM20.7245 3.77643C17.6059 -0.634438 11.3654 -1.3786 7.59266 2.5934L10.9389 5.77185C12.5476 4.07821 15.3796 4.21125 16.956 6.44087L20.7245 3.77643ZM4.62091 14.3887C4.55497 13.1602 5.08994 11.9297 6.10957 10.8563L2.76328 7.67781C1.11456 9.4136 -0.138564 11.8249 0.0123229 14.6361L4.62091 14.3887ZM49.8671 53.8083C49.0086 54.7122 48.1105 55.1965 47.2373 55.2827L47.6905 59.8758C49.9892 59.6487 51.8495 58.4229 53.2134 56.9866L49.8671 53.8083ZM23.911 20.8313C26.8881 17.697 27.0989 12.792 24.6042 9.26392L20.8359 11.9283C22.1347 13.7654 21.9356 16.2096 20.5647 17.6528L23.911 20.8313ZM53.1036 42.1917C55.629 43.6455 56.1235 47.2217 54.238 49.2066L57.5843 52.3849C61.5993 48.1577 60.4301 41.0837 55.406 38.1918L53.1036 42.1917ZM42.6141 39.4293C43.7999 38.1808 45.6478 37.9002 47.2253 38.8081L49.5277 34.8083C46.1478 32.8628 41.9559 33.4206 39.2677 36.251L42.6141 39.4293Z"/>
</mask>
<path d="M47.2253 38.8081L32.7802 30.4944L61.6699 47.1227L47.2253 38.8081ZM53.1036 42.1917L38.6585 33.878L67.5482 50.5062L53.1036 42.1917ZM47.6905 59.8758L31.1044 61.5124L64.2768 58.2402L47.6905 59.8758ZM0.0123229 14.6361L-0.880906 -2.00663L0.905444 31.2788L0.0123229 14.6361ZM23.911 20.8313L12.4328 32.9155L35.3893 8.74716L23.911 20.8313ZM24.6042 9.26392L34.2264 22.8724L14.9822 -4.34472L24.6042 9.26392ZM39.5394 39.3155L51.0173 27.2309L49.3441 25.6418L37.8662 37.7263L26.3884 49.8109L28.0616 51.4L39.5394 39.3155ZM40.9409 37.8402L29.463 49.9247L31.1362 51.5139L42.6141 39.4293L54.092 27.3448L52.4188 25.7556L40.9409 37.8402ZM48.3763 36.8082L33.9313 28.4945L32.7802 30.4944L47.2253 38.8081L61.6704 47.1218L62.8214 45.1219L48.3763 36.8082ZM54.2546 40.1918L39.8095 31.8781L38.6585 33.878L53.1036 42.1917L67.5486 50.5054L68.6997 48.5055L54.2546 40.1918ZM55.9112 50.7957L44.4333 62.8803L46.1065 64.4695L57.5843 52.3849L69.0622 40.3004L67.389 38.7112L55.9112 50.7957ZM51.5402 55.3974L63.0181 43.3129L61.3449 41.7237L49.8671 53.8083L38.3892 65.8928L40.0624 67.482L51.5402 55.3974ZM47.4641 57.5792L30.8778 59.2147L31.1043 61.5113L47.6905 59.8758L64.2768 58.2402L64.0503 55.9437L47.4641 57.5792ZM17.1237 43.7707L28.6017 55.8552L30.2749 54.266L18.7969 42.1816L7.31888 30.0971L5.64573 31.6863L17.1237 43.7707ZM2.31662 14.5124L1.4235 -2.13029L-0.880798 -2.00664L0.0123229 14.6361L0.905444 31.2788L3.20974 31.1551L2.31662 14.5124ZM22.2379 19.242L10.7596 31.3261L12.4327 32.9154L23.911 20.8313L35.3893 8.74716L33.7162 7.15792L22.2379 19.242ZM22.7201 10.5961L32.3422 24.2046L34.2264 22.8724L24.6042 9.26392L14.9821 -4.34461L13.0979 -3.0124L22.7201 10.5961ZM18.8403 5.10864L9.2184 -8.50008L7.33415 -7.16784L16.956 6.44087L26.5779 20.0496L28.4622 18.7174L18.8403 5.10864ZM9.2658 4.18261L-2.21242 16.2668L-0.539276 17.8561L10.9389 5.77185L22.4172 -6.31236L20.744 -7.90161L9.2658 4.18261ZM4.43642 9.26706L15.9147 -2.81715L14.2415 -4.40639L2.76328 7.67781L-8.71495 19.762L-7.04181 21.3513L4.43642 9.26706ZM27.1164 33.2502L38.5943 45.3347L40.2675 43.7455L28.7896 31.661L17.3118 19.5764L15.6386 21.1656L27.1164 33.2502ZM42.6141 39.4293L54.0919 27.3448L50.7456 24.1664L39.2677 36.251L27.7899 48.3355L31.1362 51.5139L42.6141 39.4293ZM53.1036 42.1917L67.5482 50.5062L69.8506 46.5064L55.406 38.1918L40.9614 29.8773L38.659 33.8772L53.1036 42.1917ZM49.5277 34.8083L35.0831 26.4937L32.7807 30.4936L47.2253 38.8081L61.6699 47.1227L63.9723 43.1228L49.5277 34.8083ZM49.8671 53.8083L38.3892 65.8928L41.7355 69.0712L53.2134 56.9866L64.6913 44.9021L61.3449 41.7237L49.8671 53.8083ZM57.5843 52.3849L69.0622 40.3004L65.7159 37.122L54.238 49.2066L42.7601 61.2911L46.1065 64.4695L57.5843 52.3849ZM18.7969 42.1816L7.31889 30.0971L3.9726 33.2755L15.4506 45.3599L26.9286 57.4444L30.2749 54.266L18.7969 42.1816ZM47.6905 59.8758L64.2766 58.2391L63.8234 53.646L47.2373 55.2827L30.6512 56.9193L31.1044 61.5124L47.6905 59.8758ZM4.62091 14.3887L3.72768 -2.25398L-0.880906 -2.00663L0.0123229 14.6361L0.905552 31.2788L5.51414 31.0314L4.62091 14.3887ZM23.911 20.8313L35.3892 8.747L32.0429 5.56855L20.5647 17.6528L9.08655 29.7371L12.4328 32.9155L23.911 20.8313ZM20.7245 3.77643L11.1026 -9.8323L7.33418 -7.16786L16.956 6.44087L26.5779 20.0496L30.3464 17.3852L20.7245 3.77643ZM20.8359 11.9283L30.4579 25.537L34.2262 22.8726L24.6042 9.26392L14.9822 -4.34472L11.2139 -1.68031L20.8359 11.9283ZM2.76328 7.67781L-8.71489 19.7621L-5.3686 22.9405L6.10957 10.8563L17.5877 -1.228L14.2414 -4.40645L2.76328 7.67781ZM10.9389 5.77185L22.4171 -6.31242L19.0708 -9.49087L7.59266 2.5934L-3.88551 14.6777L-0.53922 17.8561L10.9389 5.77185ZM25.4433 34.8393L36.9211 46.9239L40.2675 43.7455L28.7896 31.661L17.3117 19.5764L13.9654 22.7548L25.4433 34.8393ZM37.8662 37.7263L13.699 14.7687L-9.26046 38.9378L14.9105 61.8954L37.8662 37.7263ZM42.6141 39.4293L66.7813 62.387L66.784 62.3842L42.6141 39.4293ZM47.2253 38.8081L63.8542 9.91887L63.8536 9.91851L47.2253 38.8081ZM53.1036 42.1917L69.7336 13.3031L69.7325 13.3024L53.1036 42.1917ZM57.5843 52.3849L81.7528 75.3414L81.7537 75.3404L57.5843 52.3849ZM49.8671 53.8083L25.6986 30.8518L25.6959 30.8547L49.8671 53.8083ZM47.6905 59.8758L50.9645 93.0479L50.9673 93.0476L47.6905 59.8758ZM18.7969 42.1816L-5.37196 65.1376L-5.37179 65.1378L18.7969 42.1816ZM0.0123229 14.6361L33.2977 12.8496L33.2977 12.8495L0.0123229 14.6361ZM23.911 20.8313L-0.257378 -2.12522L-0.258091 -2.12446L23.911 20.8313ZM24.6042 9.26392L-2.61355 28.5072L-2.61247 28.5087L24.6042 9.26392ZM16.956 6.44087L-10.2615 25.6845L-10.2614 25.6846L16.956 6.44087ZM10.9389 5.77185L-13.2296 -17.1844L-13.2296 -17.1844L10.9389 5.77185ZM2.76328 7.67781L-21.4053 -15.2784L-21.4054 -15.2784L2.76328 7.67781ZM28.7896 31.661L4.62019 54.6164L4.62128 54.6175L28.7896 31.661ZM41.2126 40.9047L18.2568 65.0737L42.424 88.0277L65.3798 63.8624L41.2126 40.9047ZM39.2677 36.251L63.435 59.2086L63.4371 59.2065L39.2677 36.251ZM55.406 38.1918L38.777 67.0811L38.7772 67.0812L55.406 38.1918ZM49.5277 34.8083L66.1566 5.919L66.1565 5.91892L49.5277 34.8083ZM54.238 49.2066L30.0705 26.2491L30.0696 26.2501L54.238 49.2066ZM53.2134 56.9866L29.045 34.0302L29.0426 34.0327L53.2134 56.9866ZM47.2373 55.2827L43.9645 22.1104L43.9617 22.1107L47.2373 55.2827ZM15.4506 45.3599L39.6193 22.4038L39.6191 22.4035L15.4506 45.3599ZM4.62091 14.3887L-28.6645 16.1751L-28.6645 16.1753L4.62091 14.3887ZM23.0286 21.7603L0.0723497 45.929L24.2415 68.8857L47.1977 44.7161L23.0286 21.7603ZM20.5647 17.6528L-3.60391 -5.30342L-3.60404 -5.30328L20.5647 17.6528ZM19.6823 18.5819L-4.4865 -4.3742L-27.4425 19.7944L-3.27397 42.7505L19.6823 18.5819ZM20.7245 3.77643L47.9423 -15.4669L47.942 -15.4672L20.7245 3.77643ZM20.8359 11.9283L48.0536 -7.31508L48.0533 -7.31544L20.8359 11.9283ZM7.59266 2.5934L31.7613 25.5497L31.7613 25.5496L7.59266 2.5934ZM6.10957 10.8563L30.2781 33.8126L30.2782 33.8125L6.10957 10.8563ZM21.3554 20.1711L44.3116 -3.99753L44.3116 -3.99754L21.3554 20.1711ZM19.678 18.5864L-4.38144 -4.48427L-4.60065 -4.25567L-4.81548 -4.02294L19.678 18.5864ZM19.6736 18.591L-4.61396 -4.23932L-4.66647 -4.18346L-4.71872 -4.12735L19.6736 18.591ZM19.6647 18.6006L44.083 41.2911L44.1118 41.2601L44.1405 41.2291L19.6647 18.6006ZM19.6459 18.621L-5.01876 -3.80142L-5.02118 -3.79875L19.6459 18.621ZM19.6049 18.6671L-5.54456 -3.21015L-5.55035 -3.2035L-5.55614 -3.19684L19.6049 18.6671ZM19.2863 19.0967L-8.7883 1.1265L-8.79198 1.13226L19.2863 19.0967ZM18.8029 20.095L-12.6011 8.91915L-12.6015 8.92037L18.8029 20.095ZM18.5432 23.4556L51.5244 18.6234L51.5244 18.6232L18.5432 23.4556ZM25.4433 34.8393L1.27451 57.7954L1.27484 57.7958L25.4433 34.8393ZM23.1097 22.7865L-9.87146 27.6193L-9.87139 27.6197L23.1097 22.7865ZM23.1511 21.6423L54.555 32.8184L54.5571 32.8126L23.1511 21.6423ZM23.1738 21.5843L-4.90055 3.61365L-4.90632 3.62267L-4.91209 3.6317L23.1738 21.5843ZM23.1297 21.6449L49.2491 42.3546L49.2624 42.3378L49.2757 42.321L23.1297 21.6449ZM23.0873 21.6959L48.2131 43.6004L48.2305 43.5804L48.2478 43.5605L23.0873 21.6959ZM23.0601 21.7264L47.7312 44.1418L47.7488 44.1225L47.7663 44.1031L23.0601 21.7264ZM23.0449 21.743L-1.37209 -0.94891L-1.40527 -0.913212L-1.43834 -0.877417L23.0449 21.743ZM23.0369 21.7515L-1.16832 -1.16612L-1.23294 -1.09787L-1.29717 -1.02925L23.0369 21.7515ZM23.0328 21.7559L-1.05531 -1.28483L-1.12841 -1.20841L-1.20102 -1.13153L23.0328 21.7559ZM36.3675 42.1502L31.0244 75.0525L31.0262 75.0528L36.3675 42.1502ZM39.7237 41.8606L51.9483 72.8715L51.9527 72.8697L39.7237 41.8606ZM40.7135 41.3299L59.9949 68.5207L60.0029 68.515L60.0109 68.5093L40.7135 41.3299ZM41.0215 41.0874L19.0845 15.99L19.0647 16.0074L19.0449 16.0247L41.0215 41.0874ZM41.1311 40.9865L18.271 16.7269L18.0901 16.8974L17.9117 17.0706L41.1311 40.9865ZM41.1947 40.9231L17.6245 17.3529L17.3371 17.6403L17.0568 17.9346L41.1947 40.9231ZM41.204 40.9139L17.6337 17.3437L41.204 40.9139ZM41.2083 40.9093L64.7785 64.4795L65.5633 63.6947L66.2942 62.8594L41.2083 40.9093ZM37.8705 37.722L61.4408 61.2922L63.7747 58.9583L65.6056 56.212L37.8705 37.722ZM37.8745 37.7174L14.3043 14.1472L12.9989 15.4526L11.8456 16.8942L37.8745 37.7174ZM37.8828 37.7091L61.4531 61.2793L37.8828 37.7091ZM37.8985 37.6928L14.6827 13.7734L14.1418 14.2984L13.6252 14.8473L37.8985 37.6928ZM37.9281 37.6639L61.0955 61.6301L37.9281 37.6639ZM37.9782 37.6177L59.9284 62.7036L59.9935 62.6466L60.0584 62.5893L37.9782 37.6177ZM38.0435 37.5654L57.079 64.9289L57.2355 64.82L57.3908 64.7093L38.0435 37.5654ZM38.0302 37.5672L25.8191 6.55112L25.817 6.55198L38.0302 37.5672ZM37.1075 37.5946L31.7627 70.4967L31.7654 70.4971L37.1075 37.5946ZM41.2126 40.9047L65.3798 63.8624L66.7813 62.387L42.6141 39.4293L18.4468 16.4717L17.0453 17.947L41.2126 40.9047ZM39.2677 36.251L15.1004 13.2933L13.699 14.7687L37.8662 37.7263L62.0335 60.684L63.435 59.2086L39.2677 36.251ZM37.8662 37.7263L14.9105 61.8954L18.2568 65.0737L41.2126 40.9047L64.1684 16.7356L60.822 13.5573L37.8662 37.7263ZM47.2253 38.8081L30.5964 67.6974L36.4746 71.081L53.1036 42.1917L69.7325 13.3024L63.8542 9.91887L47.2253 38.8081ZM55.406 38.1918L72.0349 9.30258L66.1566 5.919L49.5277 34.8083L32.8988 63.6975L38.777 67.0811L55.406 38.1918ZM54.238 49.2066L30.0696 26.2501L25.6986 30.8518L49.8671 53.8083L74.0355 76.7647L78.4064 72.163L54.238 49.2066ZM53.2134 56.9866L77.3819 79.943L81.7528 75.3414L57.5843 52.3849L33.4159 29.4285L29.045 34.0302L53.2134 56.9866ZM47.2373 55.2827L43.9617 22.1107C45.552 21.9536 46.4312 22.1555 46.7002 22.2462C46.8054 22.2817 46.5584 22.2169 45.9905 21.8498C45.4164 21.4787 44.3721 20.7062 42.9655 19.2254L18.7969 42.1816L-5.37179 65.1378C15.2429 86.8413 37.4462 89.7449 50.5129 88.4547L47.2373 55.2827ZM15.4506 45.3599L-8.71816 68.316C13.0305 91.2135 36.7197 94.4538 50.9645 93.0479L47.6905 59.8758L44.4166 26.7036C45.4988 26.5968 45.6864 26.7747 45.2166 26.6164C44.8961 26.5085 42.834 25.7883 39.6193 22.4038L15.4506 45.3599ZM18.7969 42.1816L42.9657 19.2255C39.6421 15.7264 38.4368 13.2981 38.047 12.3733C37.6521 11.4362 37.8442 11.4445 37.9063 12.6021L4.62091 14.3887L-28.6645 16.1753C-28.0103 28.3642 -23.0092 46.5685 -5.37196 65.1376L18.7969 42.1816ZM0.0123229 14.6361L-33.2731 16.4225C-32.563 29.6538 -27.1477 48.9134 -8.7179 68.3163L15.4506 45.3599L39.6191 22.4035C35.9161 18.5051 34.4023 15.6092 33.7945 14.1669C33.1759 12.6988 33.2616 12.1763 33.2977 12.8496L0.0123229 14.6361ZM23.0286 21.7603L47.1977 44.7161L48.0801 43.787L23.911 20.8313L-0.258091 -2.12446L-1.14052 -1.19539L23.0286 21.7603ZM20.5647 17.6528L-3.60404 -5.30328L-4.4865 -4.3742L19.6823 18.5819L43.851 41.538L44.7335 40.6089L20.5647 17.6528ZM19.6823 18.5819L-3.27397 42.7505L0.0723497 45.929L23.0286 21.7603L45.9848 -2.40829L42.6385 -5.58674L19.6823 18.5819ZM24.6042 9.26392L51.822 -9.97938L47.9423 -15.4669L20.7245 3.77643L-6.49326 23.0197L-2.61355 28.5072L24.6042 9.26392ZM16.956 6.44087L-10.2614 25.6846L-6.38156 31.1721L20.8359 11.9283L48.0533 -7.31544L44.1735 -12.8029L16.956 6.44087ZM7.59266 2.5934L-16.5759 -20.3629L-21.4053 -15.2784L2.76328 7.67781L26.9319 30.6341L31.7613 25.5497L7.59266 2.5934ZM6.10957 10.8563L30.2782 33.8125L35.1075 28.7281L10.9389 5.77185L-13.2296 -17.1844L-18.059 -12.1L6.10957 10.8563ZM21.3554 20.1711L44.3116 -3.99754C43.4814 -4.78608 43.0151 -5.22798 42.7488 -5.47891C42.6694 -5.55376 42.426 -5.78348 42.1699 -6.01703C42.0905 -6.08945 41.9354 -6.23038 41.7391 -6.40353C41.6067 -6.52027 41.1376 -6.93408 40.5141 -7.43317C40.205 -7.68068 39.5769 -8.17562 38.7486 -8.75332C38.1414 -9.17683 36.236 -10.4946 33.5485 -11.7244C31.5525 -12.6377 23.8489 -16.0627 13.6816 -14.2033C1.92523 -12.0532 -4.74474 -4.10541 -4.38144 -4.48427L19.678 18.5864L43.7374 41.657C44.1008 41.278 37.431 49.2257 25.6749 51.3757C15.5078 53.2351 7.80453 49.8102 5.80908 48.8971C3.12212 47.6676 1.21746 46.3502 0.611279 45.9274C-0.215956 45.3505 -0.842638 44.8566 -1.15004 44.6105C-1.76993 44.1142 -2.23395 43.7048 -2.3587 43.5948C-2.5474 43.4283 -2.69246 43.2964 -2.75854 43.2362C-2.96128 43.0512 -3.09918 42.9198 -2.96867 43.0428C-2.81511 43.1875 -2.44377 43.5391 -1.60081 44.3397L21.3554 20.1711ZM19.678 18.5864L-4.81548 -4.02294C-4.75686 -4.08645 -4.71052 -4.13614 -4.68961 -4.15854C-4.66486 -4.18505 -4.64489 -4.20636 -4.63304 -4.21899C-4.61017 -4.24337 -4.59236 -4.26228 -4.58845 -4.26642C-4.5856 -4.26946 -4.57705 -4.27853 -4.58434 -4.27079C-4.58604 -4.26898 -4.59847 -4.2558 -4.61396 -4.23932L19.6736 18.591L43.9612 41.4213C43.9465 41.437 43.9349 41.4494 43.934 41.4503C43.9275 41.4571 43.9369 41.4472 43.9406 41.4433C43.9453 41.4382 43.9639 41.4185 43.9874 41.3934C43.9996 41.3805 44.0199 41.3588 44.0449 41.332C44.0661 41.3094 44.1126 41.2594 44.1714 41.1957L19.678 18.5864ZM19.6736 18.591L-4.71872 -4.12735C-4.69949 -4.14801 -4.68458 -4.16395 -4.67957 -4.16932C-4.67707 -4.17199 -4.67489 -4.17432 -4.6759 -4.17324C-4.67603 -4.1731 -4.67908 -4.16984 -4.68268 -4.166C-4.68986 -4.15831 -4.70627 -4.14074 -4.72697 -4.11851C-4.7481 -4.09583 -4.77693 -4.06481 -4.81103 -4.02793L19.6647 18.6006L44.1405 41.2291C44.1079 41.2643 44.0805 41.2937 44.0609 41.3148C44.0417 41.3354 44.0268 41.3514 44.0211 41.3575C44.0183 41.3605 44.0159 41.363 44.0165 41.3623C44.0166 41.3623 44.0168 41.3621 44.017 41.3618C44.0173 41.3615 44.0177 41.3611 44.0182 41.3606C44.0191 41.3596 44.0206 41.358 44.0224 41.356C44.0289 41.3491 44.0453 41.3316 44.066 41.3094L19.6736 18.591ZM19.6647 18.6006L-4.75353 -4.08996C-4.80963 -4.02959 -4.90378 -3.9279 -5.01876 -3.80142L19.6459 18.621L44.3106 41.0434C44.2085 41.1557 44.1269 41.2438 44.083 41.2911L19.6647 18.6006ZM19.6459 18.621L-5.02118 -3.79875C-5.18608 -3.61732 -5.36118 -3.42097 -5.54456 -3.21015L19.6049 18.6671L44.7544 40.5443C44.5998 40.722 44.4521 40.8877 44.313 41.0407L19.6459 18.621ZM19.6049 18.6671L-5.55614 -3.19684C-5.90039 -2.80067 -6.26025 -2.36923 -6.62987 -1.90208L19.5107 18.7808L45.6513 39.4636C45.3493 39.8453 45.0527 40.2011 44.766 40.531L19.6049 18.6671ZM19.5107 18.7808L-6.62987 -1.90208C-7.35153 -0.989993 -8.07894 0.0182875 -8.78829 1.1265L19.2863 19.0967L47.3609 37.0669C46.8121 37.9243 46.2377 38.7225 45.6513 39.4636L19.5107 18.7808ZM19.2863 19.0967L-8.79198 1.13226C-10.2174 3.36011 -11.5468 5.95665 -12.6011 8.91915L18.8029 20.095L50.2069 31.2708C49.4483 33.4024 48.4681 35.3364 47.3646 37.0612L19.2863 19.0967ZM18.8029 20.095L-12.6015 8.92037C-14.7861 15.0598 -15.4054 21.6854 -14.438 28.288L18.5432 23.4556L51.5244 18.6232C52.0824 22.4317 51.7907 26.8198 50.2074 31.2696L18.8029 20.095ZM18.5432 23.4556L-14.438 28.2878C-12.614 40.7369 -5.63751 50.5183 1.27451 57.7954L25.4433 34.8393L49.612 11.8832C48.5823 10.7991 48.7131 10.7256 49.2534 11.6619C49.8192 12.6424 50.9965 15.02 51.5244 18.6234L18.5432 23.4556ZM28.7896 31.661L52.959 8.70559C52.1119 7.8136 52.4869 8.03069 53.2535 9.35955C54.0144 10.6787 55.4538 13.6069 56.0908 17.9533L23.1097 22.7865L-9.87139 27.6197C-8.24478 38.7194 -1.99013 47.6565 4.62019 54.6164L28.7896 31.661ZM23.1097 22.7865L56.0908 17.9538C56.7554 22.4892 56.3979 27.6401 54.555 32.8184L23.1511 21.6423L-8.25279 10.4661C-10.1753 15.8682 -10.7342 21.7316 -9.87146 27.6193L23.1097 22.7865ZM23.1511 21.6423L54.5571 32.8126C54.125 34.0274 53.6222 35.2121 53.0535 36.3616C52.912 36.6476 52.7624 36.9395 52.6044 37.2366C52.5299 37.3765 52.4355 37.5514 52.3243 37.7518C52.2959 37.8029 52.2532 37.8796 52.2006 37.9727C52.1753 38.0174 52.133 38.0922 52.0799 38.1845C52.0652 38.21 51.9077 38.4852 51.7014 38.8264C51.636 38.934 51.4722 39.1997 51.3732 39.3576C51.2046 39.6222 50.6816 40.4096 50.3198 40.9273C49.1271 42.4993 22.0025 54.8875 -3.00566 42.2014C-9.64442 27.3804 -7.98275 9.74166 -7.40802 8.3267C-7.18681 7.82722 -6.83514 7.07551 -6.71068 6.82064C-6.63398 6.66626 -6.50287 6.4069 -6.44887 6.30171C-6.34353 6.09734 -6.25863 5.93796 -6.22167 5.86878C-6.08664 5.61601 -5.97669 5.41852 -5.96053 5.38943C-5.55704 4.663 -5.18772 4.06228 -4.90055 3.61365L23.1738 21.5843L51.2481 39.5549C51.5424 39.0951 51.9153 38.4882 52.3194 37.7607C52.3356 37.7315 52.4455 37.534 52.5806 37.2812C52.6175 37.212 52.7024 37.0526 52.8078 36.8482C52.8618 36.743 52.9929 36.4837 53.0696 36.3293C53.1941 36.0744 53.5457 35.3227 53.767 34.8232C54.3417 33.4083 56.0034 15.7695 49.3646 0.948527C24.3565 -11.7376 -2.7682 0.650591 -3.96085 2.2226C-4.32265 2.7403 -4.84568 3.52775 -5.01431 3.79234C-5.11328 3.95022 -5.2771 4.21596 -5.34243 4.32352C-5.54881 4.66473 -5.7063 4.93994 -5.72096 4.96545C-5.77406 5.05783 -5.81646 5.13264 -5.84174 5.17738C-5.89434 5.27047 -5.93714 5.34728 -5.96553 5.39843C-6.07701 5.59929 -6.17173 5.77484 -6.24678 5.91585C-6.40596 6.21495 -6.55728 6.51023 -6.70113 6.80102C-7.27911 7.96937 -7.80044 9.19426 -8.25488 10.4719L23.1511 21.6423ZM23.1738 21.5843L-4.91209 3.6317C-4.28107 2.6445 -3.64044 1.75819 -3.01622 0.968828L23.1297 21.6449L49.2757 42.321C49.9464 41.4728 50.6148 40.5457 51.2596 39.5369L23.1738 21.5843ZM23.1297 21.6449L-2.98961 0.935226C-2.69207 0.559961 -2.38644 0.191771 -2.07311 -0.168797L23.0873 21.6959L48.2478 43.5605C48.5946 43.1614 48.9282 42.7593 49.2491 42.3546L23.1297 21.6449ZM23.0873 21.6959L-2.03842 -0.208643C-1.87945 -0.390998 -1.74455 -0.5415 -1.64602 -0.650294L23.0601 21.7264L47.7663 44.1031C47.8843 43.9728 48.0374 43.8019 48.2131 43.6004L23.0873 21.6959ZM23.0601 21.7264L-1.61091 -0.688989C-1.50808 -0.802167 -1.42428 -0.892755 -1.37209 -0.94891L23.0449 21.743L47.4619 44.4348C47.5246 44.3674 47.6186 44.2658 47.7312 44.1418L23.0601 21.7264ZM23.0449 21.743L-1.43834 -0.877417C-1.3462 -0.977138 -1.25612 -1.07338 -1.16832 -1.16612L23.0369 21.7515L47.2421 44.6692C47.3354 44.5707 47.4308 44.4687 47.5282 44.3633L23.0449 21.743ZM23.0369 21.7515L-1.29717 -1.02925C-1.25804 -1.07106 -1.22682 -1.10418 -1.20911 -1.12295C-1.19835 -1.13435 -1.18379 -1.14977 -1.16644 -1.16809C-1.15771 -1.1773 -1.14514 -1.19056 -1.12995 -1.20655C-1.11716 -1.22 -1.08996 -1.24861 -1.05531 -1.28483L23.0328 21.7559L47.1208 44.7967C47.2416 44.6704 47.3365 44.5692 47.3709 44.5323L23.0369 21.7515ZM23.0328 21.7559L-1.20102 -1.13153C-1.201 -1.13155 -1.16787 -1.16658 -1.13471 -1.20154C-1.1015 -1.23644 -1.00159 -1.34086 -0.934746 -1.41022C-0.763529 -1.58736 -0.479262 -1.87771 -0.117805 -2.22663C0.598609 -2.91818 1.77973 -3.99851 3.36844 -5.15922C6.8704 -7.71775 11.5202 -10.0548 17.2068 -11.0642C27.4472 -12.8819 35.1733 -9.35763 37.0665 -8.47886C39.7097 -7.25194 41.5837 -5.94715 42.1748 -5.53249C42.9858 -4.96351 43.6004 -4.47733 43.9015 -4.23553C44.509 -3.74764 44.964 -3.34562 45.0862 -3.2377C45.2712 -3.07435 45.4133 -2.94499 45.478 -2.88592C45.6765 -2.70473 45.8109 -2.57671 45.681 -2.69912C45.5265 -2.84466 45.1544 -3.19701 44.3116 -3.99753L21.3554 20.1711L-1.60083 44.3397C-0.770452 45.1285 -0.304936 45.5696 -0.0395284 45.8197C0.0405035 45.8951 0.280359 46.1215 0.53211 46.3513C0.610137 46.4226 0.762372 46.561 0.954935 46.731C1.08473 46.8457 1.5449 47.2521 2.1559 47.7428C2.45874 47.986 3.07475 48.4732 3.88683 49.0429C4.47893 49.4583 6.35373 50.7636 8.99743 51.9907C10.8911 52.8698 18.6176 56.3941 28.8582 54.5764C34.5449 53.567 39.1948 51.2298 42.6969 48.6712C44.2856 47.5105 45.4668 46.4301 46.1832 45.7386C46.5447 45.3896 46.829 45.0993 47.0002 44.9221C47.0671 44.8527 47.167 44.7483 47.2002 44.7134C47.2334 44.6784 47.2665 44.6434 47.2665 44.6434L23.0328 21.7559ZM25.4433 34.8393L1.27484 57.7958C7.97329 64.8479 17.767 72.8996 31.0244 75.0525L36.3675 42.1502L41.7106 9.24786C45.8178 9.91483 48.5066 11.3934 49.6101 12.0992C50.665 12.7739 50.6578 12.9843 49.6117 11.8829L25.4433 34.8393ZM36.3675 42.1502L31.0262 75.0528C38.1991 76.2172 45.3979 75.4537 51.9483 72.8715L39.7237 41.8606L27.4991 10.8498C32.3511 8.93715 37.3069 8.53298 41.7088 9.24757L36.3675 42.1502ZM39.7237 41.8606L51.9527 72.8697C55.0876 71.6334 57.7654 70.1017 59.9949 68.5207L40.7135 41.3299L21.4321 14.1391C23.1688 12.9076 25.19 11.7605 27.4948 10.8516L39.7237 41.8606ZM40.7135 41.3299L60.0109 68.5093C61.1132 67.7267 62.1072 66.9314 62.9981 66.1501L41.0215 41.0874L19.0449 16.0247C19.7709 15.3881 20.56 14.7583 21.4161 14.1505L40.7135 41.3299ZM41.0215 41.0874L62.9585 66.1848C63.4855 65.7242 63.9498 65.2914 64.3504 64.9025L41.1311 40.9865L17.9117 17.0706C18.2489 16.7432 18.6406 16.3781 19.0845 15.99L41.0215 41.0874ZM41.1311 40.9865L63.9911 65.2461C64.2247 65.0261 64.414 64.8415 64.539 64.7184C64.602 64.6564 64.6537 64.605 64.6877 64.5711C64.7049 64.554 64.7191 64.5398 64.7286 64.5303C64.7373 64.5216 64.7451 64.5139 64.7456 64.5134L41.1754 40.9431L17.6051 17.3729C17.5855 17.3926 17.669 17.3089 17.7693 17.2101C17.8795 17.1016 18.0534 16.9319 18.271 16.7269L41.1311 40.9865ZM41.1754 40.9431L64.7456 64.5134C64.9265 64.3325 65.0729 64.182 65.1683 64.0831C65.2579 63.9903 65.3309 63.9135 65.3327 63.9116L41.1947 40.9231L17.0568 17.9346C17.0568 17.9346 17.0743 17.9162 17.0967 17.8928C17.1204 17.868 17.1571 17.8297 17.2023 17.7829C17.2912 17.6908 17.431 17.547 17.6051 17.3729L41.1754 40.9431ZM41.1947 40.9231L64.765 64.4934C64.7657 64.4926 64.7666 64.4917 64.7683 64.4901C64.7697 64.4886 64.7719 64.4864 64.7742 64.4841L41.204 40.9139L17.6337 17.3437C17.633 17.3445 17.6321 17.3453 17.6304 17.347C17.629 17.3484 17.6268 17.3506 17.6245 17.3529L41.1947 40.9231ZM41.204 40.9139L64.7742 64.4841C64.8232 64.4352 64.8693 64.3887 64.9124 64.3452C64.9554 64.3016 64.9961 64.2602 65.0342 64.2212C65.0723 64.1823 65.1083 64.1452 65.1422 64.1103C65.176 64.0754 65.2081 64.0422 65.2382 64.0108C65.2982 63.9484 65.3526 63.8913 65.4005 63.8408C65.4484 63.7902 65.4919 63.7439 65.5303 63.703C65.5687 63.662 65.6034 63.6247 65.6339 63.5919C65.6644 63.559 65.6918 63.5294 65.7155 63.5037C65.7392 63.478 65.7602 63.4552 65.7777 63.4361C65.7952 63.417 65.8101 63.4006 65.8217 63.388C65.8331 63.3755 65.8423 63.3654 65.8476 63.3596C65.8502 63.3566 65.8524 63.3543 65.8534 63.3532C65.8539 63.3526 65.8543 63.3522 65.8544 63.3521C65.8546 63.3519 65.8543 63.3522 65.8541 63.3525C65.8535 63.353 65.8516 63.3552 65.8491 63.3579C65.8466 63.3607 65.8427 63.365 65.8379 63.3702C65.8331 63.3754 65.8268 63.3823 65.8195 63.3903C65.8122 63.3984 65.8031 63.4083 65.7928 63.4196C65.7824 63.4309 65.77 63.4444 65.756 63.4597C65.742 63.475 65.7254 63.4929 65.7068 63.5131C65.6883 63.5332 65.6665 63.5567 65.642 63.5831C65.6177 63.6094 65.589 63.6402 65.5568 63.6746C65.5248 63.7089 65.4868 63.7494 65.4439 63.7948C65.4223 63.8177 65.3988 63.8424 65.3737 63.8689C65.3486 63.8953 65.3212 63.924 65.2918 63.9547C65.2625 63.9854 65.2303 64.0189 65.1956 64.0549C65.161 64.0908 65.1228 64.1302 65.0815 64.1725C65.0403 64.2149 64.9945 64.2616 64.9447 64.3121C64.895 64.3625 64.8394 64.4186 64.7785 64.4795L41.2083 40.9093L17.638 17.3391C17.5771 17.4 17.5215 17.4561 17.4718 17.5065C17.422 17.5571 17.3762 17.6038 17.3349 17.6462C17.2936 17.6886 17.2554 17.728 17.2207 17.7639C17.186 17.7999 17.1538 17.8334 17.1244 17.8641C17.095 17.8949 17.0676 17.9236 17.0425 17.9501C17.0173 17.9765 16.9939 18.0013 16.9722 18.0242C16.9293 18.0697 16.8913 18.1103 16.8591 18.1446C16.8269 18.1791 16.7982 18.21 16.7737 18.2363C16.7492 18.2627 16.7274 18.2864 16.7087 18.3065C16.6901 18.3268 16.6735 18.3448 16.6594 18.3602C16.6453 18.3755 16.6328 18.3891 16.6224 18.4005C16.6119 18.4119 16.6028 18.4219 16.5954 18.43C16.5879 18.4382 16.5816 18.4451 16.5767 18.4505C16.5719 18.4558 16.5679 18.4602 16.5653 18.463C16.5627 18.4659 16.5607 18.4681 16.56 18.4688C16.5598 18.4691 16.5594 18.4695 16.5596 18.4693C16.5596 18.4693 16.56 18.4689 16.5604 18.4683C16.5614 18.4673 16.5634 18.4651 16.566 18.4623C16.5711 18.4567 16.58 18.4468 16.5913 18.4345C16.6026 18.4221 16.6174 18.406 16.6347 18.3871C16.652 18.3682 16.6727 18.3457 16.6962 18.3202C16.7196 18.2947 16.7468 18.2653 16.7771 18.2327C16.8074 18.2001 16.8419 18.163 16.8801 18.1222C16.9183 18.0815 16.9615 18.0355 17.0093 17.9851C17.057 17.9348 17.1111 17.878 17.1709 17.8158C17.201 17.7845 17.2329 17.7514 17.2667 17.7166C17.3004 17.6818 17.3363 17.6448 17.3743 17.606C17.4123 17.5671 17.4529 17.5259 17.4959 17.4824C17.5388 17.4389 17.5849 17.3926 17.6337 17.3437L41.204 40.9139ZM41.2083 40.9093L66.2942 62.8594C65.952 63.2505 72.8166 56.3599 74.2647 45.1975C75.5517 35.2775 72.0168 27.9527 70.9143 25.7868C69.5447 23.0963 68.1115 21.2124 67.637 20.595C67.0006 19.7668 66.4577 19.1424 66.1852 18.834C65.6367 18.2132 65.1835 17.7488 65.0559 17.618C64.8666 17.424 64.7127 17.2711 64.6341 17.1932C64.381 16.9427 64.1328 16.7054 64.0558 16.6317C63.7908 16.378 63.3247 15.9343 62.4952 15.1464L39.5394 39.3155L16.5837 63.4846C17.4273 64.2858 17.7967 64.6378 17.9484 64.7831C18.0798 64.9089 17.9352 64.772 17.7334 64.5722C17.6675 64.507 17.5232 64.3637 17.341 64.177C17.2205 64.0534 16.7719 63.5939 16.2264 62.9766C15.9554 62.6698 15.4137 62.0468 14.778 61.2197C14.3043 60.6033 12.8716 58.72 11.5023 56.0301C10.4 53.8647 6.86519 46.5402 8.15212 36.6205C9.60022 25.4584 16.4647 18.5679 16.1224 18.9592L41.2083 40.9093ZM39.5394 39.3155L62.4952 15.1464C61.6524 14.3459 61.2813 13.9924 61.1279 13.8455C60.9989 13.722 61.1336 13.8495 61.3246 14.0383C61.3868 14.0998 61.5234 14.2352 61.6961 14.4116C61.8099 14.5277 62.2358 14.9624 62.7554 15.5453C63.0126 15.8339 63.5323 16.4257 64.1452 17.2106C64.5883 17.7782 66.004 19.6035 67.3755 22.2125C68.3426 24.0523 72.3569 31.788 70.8829 42.3355C69.1659 54.6226 60.9939 61.7391 61.4408 61.2922L37.8705 37.722L14.3003 14.1518C14.3003 14.1518 14.2663 14.1859 14.2323 14.22C14.1984 14.2542 14.0969 14.357 14.0294 14.4258C13.8573 14.602 13.5748 14.8948 13.2357 15.2668C12.5651 16.0025 11.5122 17.2214 10.3905 18.8551C7.91771 22.4568 5.67538 27.2586 4.85783 33.109C3.38387 43.6567 7.39819 51.3928 8.36559 53.2331C9.73737 55.8426 11.1535 57.6686 11.5975 58.2372C12.2111 59.0232 12.7319 59.6163 12.9906 59.9065C13.5133 60.4928 13.9438 60.9324 14.0646 61.0558C14.2444 61.2394 14.3905 61.3844 14.4656 61.4586C14.7079 61.698 14.9462 61.9258 15.0256 62.0017C15.2889 62.2538 15.7533 62.6959 16.5837 63.4846L39.5394 39.3155ZM37.8705 37.722L65.6056 56.212C65.2051 56.8127 64.8497 57.3034 64.5875 57.6547C64.319 58.0147 64.0825 58.3164 63.8994 58.5453C63.5445 58.9888 63.2492 59.3345 63.0824 59.5273C62.9045 59.7329 62.7605 59.8942 62.6843 59.9792C62.6066 60.0659 62.5449 60.1337 62.5357 60.1438C62.4605 60.2264 62.6279 60.0432 62.7862 59.8651C62.9361 59.6965 63.3748 59.2015 63.9035 58.5406L37.8745 37.7174L11.8456 16.8942C12.3737 16.2341 12.8116 15.7399 12.9607 15.5722C13.1183 15.3949 13.2848 15.2126 13.209 15.2961C13.1994 15.3066 13.1373 15.3748 13.0592 15.4619C12.9826 15.5473 12.8383 15.7089 12.6601 15.9149C12.493 16.1081 12.1974 16.4541 11.8423 16.8979C11.6591 17.1269 11.4225 17.4288 11.1538 17.7889C10.8916 18.1404 10.5361 18.6312 10.1355 19.232L37.8705 37.722ZM37.8745 37.7174L61.4448 61.2876C61.4491 61.2833 61.453 61.2793 61.454 61.2784C61.4558 61.2766 61.4547 61.2777 61.4531 61.2793L37.8828 37.7091L14.3126 14.1389C14.3083 14.1432 14.3043 14.1471 14.3034 14.1481C14.3016 14.1499 14.3027 14.1488 14.3043 14.1472L37.8745 37.7174ZM37.8828 37.7091L61.4531 61.2793C61.6712 61.0612 61.8478 60.8786 61.9649 60.7562C62.0761 60.6402 62.1647 60.5459 62.1719 60.5383L37.8985 37.6928L13.6252 14.8473C13.6274 14.8449 13.711 14.756 13.8169 14.6454C13.9289 14.5285 14.1001 14.3514 14.3126 14.1389L37.8828 37.7091ZM37.8985 37.6928L61.1144 61.6121C61.1439 61.5835 61.1702 61.5578 61.1927 61.5359C61.2151 61.514 61.2344 61.4951 61.2497 61.4801C61.2647 61.4654 61.277 61.4532 61.2847 61.4457C61.2886 61.4419 61.2918 61.4387 61.2938 61.4368C61.2948 61.4358 61.2956 61.4349 61.2962 61.4344C61.2964 61.4342 61.2967 61.4339 61.2968 61.4338C61.297 61.4336 61.297 61.4336 61.2971 61.4335C61.2974 61.4332 61.2962 61.4344 61.2945 61.4361C61.2927 61.4379 61.2896 61.4409 61.2858 61.4446C61.2783 61.452 61.2656 61.4645 61.2496 61.4802C61.2334 61.496 61.2121 61.5169 61.1868 61.5415C61.1615 61.5662 61.1307 61.5961 61.0955 61.6301L37.9281 37.6639L14.7607 13.6976C14.6873 13.7685 14.628 13.8264 14.5925 13.8612C14.5741 13.8793 14.559 13.8942 14.5491 13.9039C14.5397 13.9131 14.5318 13.9208 14.5305 13.9222C14.527 13.9256 14.5312 13.9215 14.5354 13.9173C14.5406 13.9123 14.5504 13.9026 14.5629 13.8903C14.5875 13.8662 14.6297 13.8248 14.6827 13.7734L37.8985 37.6928ZM37.9281 37.6639L61.0955 61.6301C60.6766 62.035 60.2834 62.3929 59.9284 62.7036L37.9782 37.6177L16.0281 12.5318C15.6435 12.8683 15.2164 13.257 14.7607 13.6976L37.9281 37.6639ZM37.9782 37.6177L60.0584 62.5893C59.2455 63.308 58.2544 64.1112 57.079 64.9289L38.0435 37.5654L19.008 10.2019C17.8042 11.0393 16.7694 11.8757 15.8981 12.6461L37.9782 37.6177ZM38.0435 37.5654L57.3908 64.7093C56.8909 65.0656 56.3679 65.4173 55.8213 65.7614C55.5468 65.9343 55.2715 66.1021 54.9957 66.2647C54.927 66.3052 54.8626 66.3429 54.803 66.3775C54.3289 66.6529 54.9589 66.2881 55.2251 66.1282C55.4594 65.9861 57.0322 64.9619 58.328 64.0182C66.7345 20.5515 23.6202 7.51057 22.6911 7.97518C22.4835 8.08402 22.1894 8.24138 22.1023 8.28869C22.0533 8.31547 21.9755 8.35823 21.9466 8.37416C21.8951 8.40259 21.8547 8.42509 21.8478 8.42895C21.8349 8.43617 21.8246 8.44191 21.8236 8.44247C21.8166 8.44635 21.8406 8.43293 21.867 8.41828C21.9238 8.38668 21.9885 8.35097 22.0598 8.31195C23.2318 7.67052 24.4856 7.07612 25.8191 6.55112L38.0302 37.5672L50.2413 68.5834C51.6139 68.043 52.8888 67.4374 54.0649 66.7937C54.1365 66.7545 54.2013 66.7187 54.2583 66.6871C54.2847 66.6724 54.3088 66.6589 54.3018 66.6628C54.3008 66.6633 54.2905 66.6691 54.2776 66.6763C54.2707 66.6802 54.2303 66.7027 54.1788 66.7311C54.1499 66.747 54.0721 66.7898 54.0231 66.8166C53.936 66.8639 53.6419 67.0212 53.4343 67.1301C52.5052 67.5947 9.39089 54.5537 17.7974 11.087C19.0932 10.1434 20.666 9.11911 20.9003 8.97704C21.1666 8.81715 21.7965 8.45244 21.3222 8.72788C21.2625 8.76255 21.1978 8.80034 21.1288 8.84104C20.852 9.00433 20.5746 9.17333 20.2968 9.34821C19.744 9.69636 19.2105 10.0549 18.6962 10.4215L38.0435 37.5654ZM38.0302 37.5672L25.817 6.55198C28.2346 5.59995 31.0862 4.8097 34.2876 4.47384C37.3226 4.15545 40.0815 4.30766 42.4496 4.69215L37.1075 37.5946L31.7654 70.4971C38.147 71.5332 44.499 70.8446 50.2435 68.5825L38.0302 37.5672ZM37.1075 37.5946L42.4522 4.69258C47.4009 5.49646 50.6788 7.30449 52.0923 8.20821C53.5441 9.13644 53.8217 9.61381 52.958 8.70444L28.7896 31.661L4.62128 54.6175C11.0473 61.3828 19.9734 68.5816 31.7627 70.4967L37.1075 37.5946ZM20.7245 3.77643L47.942 -15.4672C33.798 -35.4719 2.95637 -40.9268 -16.576 -20.3628L7.59266 2.5934L31.7613 25.5496C19.7744 38.1696 1.4137 34.203 -6.49299 23.0201L20.7245 3.77643ZM10.9389 5.77185L35.1075 28.7281C21.3714 43.1896 -0.451646 39.5592 -10.2615 25.6845L16.956 6.44087L44.1736 -12.8028C31.2109 -31.1367 3.72384 -35.0332 -13.2296 -17.1844L10.9389 5.77185ZM4.62091 14.3887L37.9063 12.6023C38.4507 22.7445 33.8538 30.048 30.2781 33.8126L6.10957 10.8563L-18.059 -12.1C-23.674 -6.18854 -29.3407 3.57581 -28.6645 16.1751L4.62091 14.3887ZM2.76328 7.67781L-21.4054 -15.2784C-27.5714 -8.78671 -34.0391 2.15101 -33.2731 16.4226L0.0123229 14.6361L33.2977 12.8495C33.762 21.4987 29.8005 27.6139 26.9319 30.634L2.76328 7.67781ZM49.8671 53.8083L25.6959 30.8547C28.5327 27.8674 34.5868 23.0356 43.9645 22.1104L47.2373 55.2827L50.5101 88.4549C61.6342 87.3574 69.4845 81.5571 74.0382 76.7618L49.8671 53.8083ZM47.6905 59.8758L50.9673 93.0476C63.579 91.8018 72.3848 85.205 77.3842 79.9406L53.2134 56.9866L29.0426 34.0327C31.3141 31.6408 36.3995 27.4955 44.4137 26.7039L47.6905 59.8758ZM23.911 20.8313L48.0794 43.7878C62.692 28.4038 62.922 5.71872 51.8209 -9.98091L24.6042 9.26392L-2.61247 28.5087C-8.72424 19.8653 -8.9157 6.99019 -0.257378 -2.12522L23.911 20.8313ZM20.8359 11.9283L-6.3818 31.1717C-13.7787 20.7097 -13.7642 5.39345 -3.60391 -5.30342L20.5647 17.6528L44.7333 40.609C57.6353 27.0257 58.0481 6.82113 48.0536 -7.31508L20.8359 11.9283ZM53.1036 42.1917L36.4736 71.0804C28.0093 66.2078 23.5389 58.1095 22.3789 50.567C21.2404 43.1645 22.9427 33.7526 30.0705 26.2491L54.238 49.2066L78.4055 72.164C95.5607 54.1045 90.4485 25.2278 69.7336 13.3031L53.1036 42.1917ZM57.5843 52.3849L81.7537 75.3404C101.207 54.8586 95.0309 22.5392 72.0347 9.30249L55.406 38.1918L38.7772 67.0812C25.8292 59.6283 21.9918 41.4567 33.415 29.4294L57.5843 52.3849ZM42.6141 39.4293L66.784 62.3842C57.1489 72.5294 42.0763 74.305 30.597 67.6978L47.2253 38.8081L63.8536 9.91851C49.2193 1.49528 30.4509 3.83217 18.4442 16.4745L42.6141 39.4293ZM49.5277 34.8083L66.1565 5.91892C49.7766 -3.50939 28.6521 -0.974872 15.0984 13.2955L39.2677 36.251L63.4371 59.2065C55.2598 67.8161 42.519 69.235 32.8989 63.6976L49.5277 34.8083Z" fill="black" mask="url(#path-1-inside-1_2717_36)"/>
</svg>
