<svg width="109" height="112" viewBox="0 0 109 112" fill="none" xmlns="http://www.w3.org/2000/svg">
<path d="M54.0503 111.377C53.7253 111.377 53.4002 111.349 53.0782 111.295C52.7008 111.23 49.2448 110.607 44.2371 108.476C41.3264 107.238 38.4504 105.728 35.6876 103.988C32.2498 101.822 28.9751 99.2894 25.9554 96.4601C18.3341 89.3211 12.2801 80.2902 7.96094 69.6182C5.43613 63.3797 3.48592 56.5067 2.16508 49.1892C0.728591 41.2324 0 32.5482 0 23.3796C0 21.0912 1.35371 19.0177 3.45244 18.093L43.3819 0.494575C46.3091 -0.795635 49.7299 0.52554 51.0233 3.44536C52.3168 6.36518 50.9923 9.7774 48.0651 11.0676L11.6319 27.1251C11.9715 41.4898 14.2821 54.1521 18.5136 64.8096C22.117 73.8847 27.121 81.5386 33.3862 87.5573C38.9483 92.9009 44.5232 95.9677 48.2209 97.5997C50.719 98.7023 52.727 99.3204 53.9048 99.6331C55.0917 99.2584 57.1205 98.5365 59.6465 97.3107C63.3802 95.4989 69.0092 92.1778 74.6243 86.6441C80.9309 80.4287 85.9641 72.7147 89.5833 63.7161C93.8045 53.2213 96.115 40.9276 96.4662 27.1239L83.4143 21.3711L54.6602 72.1525C53.7697 73.7257 52.1932 74.7924 50.3988 75.0365C48.6044 75.2806 46.7991 74.674 45.5184 73.3966L30.4122 58.3281C28.1497 56.0713 28.1497 52.4114 30.4122 50.1546C32.6746 47.8978 36.3438 47.8978 38.6062 50.1546L48.3202 59.8442L75.9068 11.1241C77.3725 8.53577 80.5675 7.4781 83.2938 8.67966L104.649 18.0918C106.748 19.0165 108.102 21.09 108.102 23.3783C108.102 40.4146 105.421 55.605 100.132 68.5266C95.8235 79.0541 89.7921 88.1001 82.2061 95.4139C69.1237 108.026 55.88 111.11 55.323 111.235C54.9049 111.329 54.4782 111.375 54.0515 111.375L54.0503 111.377Z" fill="url(#paint0_linear_2955_38)"/>
<defs>
<linearGradient id="paint0_linear_2955_38" x1="1.51379" y1="21.9454" x2="106.017" y2="81.7806" gradientUnits="userSpaceOnUse">
<stop stop-color="#8CE39B"/>
<stop offset="1" stop-color="#28A09D"/>
</linearGradient>
</defs>
</svg>
