<svg width="49" height="49" viewBox="0 0 49 49" fill="none" xmlns="http://www.w3.org/2000/svg">
<path d="M41.4132 7.07081C37.0446 2.70231 31.0099 0 24.3435 0C11.0122 0 0.202998 10.8076 0.202998 24.1405C0.202998 28.5772 1.39987 32.733 3.48669 36.3057L3.42498 36.192L0 48.7L12.7954 45.3432C16.1261 47.1929 20.1 48.281 24.3289 48.281H24.3386C37.6699 48.2761 48.4742 37.4669 48.4742 24.1356C48.4742 17.4724 45.7752 11.4409 41.4115 7.07244L41.4132 7.07081ZM24.3386 44.2031H24.3305C20.5645 44.2031 17.0388 43.1638 14.0296 41.3563L14.1205 41.4067L13.3881 40.973L5.79599 42.9657L7.82109 35.5619L7.34364 34.8035C5.41923 31.7797 4.27594 28.0949 4.27594 24.1421C4.27594 13.0633 13.2582 4.08107 24.337 4.08107C35.4158 4.08107 44.398 13.0633 44.398 24.1421C44.398 35.2209 35.419 44.2031 24.3386 44.2031ZM35.3427 29.1797C34.7402 28.8776 31.7748 27.4209 31.2227 27.2179C30.6689 27.0166 30.2661 26.9175 29.8634 27.5216C29.4639 28.1241 28.3076 29.4818 27.9552 29.8845C27.6044 30.2889 27.2504 30.3376 26.6479 30.0372C24.7803 29.2804 23.1758 28.2719 21.7808 27.0295L21.7971 27.0442C20.4995 25.8424 19.3871 24.4669 18.489 22.9501L18.4436 22.8657C18.0928 22.2632 18.4062 21.9367 18.7066 21.6363C18.9778 21.3667 19.3108 20.9315 19.6112 20.5807C19.8483 20.29 20.0513 19.9571 20.2056 19.5998L20.2153 19.5722C20.2852 19.4309 20.3258 19.2669 20.3258 19.0915C20.3258 18.8788 20.2657 18.6807 20.1617 18.5118L20.165 18.5166C20.0123 18.2146 18.8073 15.2459 18.3055 14.0377C17.8151 12.8619 17.3165 13.0227 16.9479 13.0032C16.5971 12.987 16.1943 12.9837 15.7916 12.9837C15.1501 13 14.5801 13.289 14.1871 13.7356L14.1855 13.7389C12.883 14.9747 12.0743 16.7173 12.0743 18.6482C12.0743 18.6904 12.0743 18.7342 12.0759 18.7765V18.77C12.2887 21.1524 13.1819 23.2911 14.5557 25.0337L14.5363 25.0093C17.1411 28.8728 20.6132 31.9632 24.6878 34.0451L24.8404 34.115C25.7304 34.5177 26.8704 34.9481 28.0364 35.3167L28.2784 35.3833C28.9962 35.6107 29.8228 35.7422 30.6803 35.7422C31.1723 35.7422 31.6563 35.6984 32.124 35.6155L32.0736 35.622C33.8097 35.2599 35.2501 34.2124 36.1287 32.7817L36.1433 32.7541C36.4113 32.1597 36.5672 31.4663 36.5672 30.7371C36.5672 30.4367 36.5412 30.1427 36.4909 29.8569L36.4957 29.8878C36.3463 29.636 35.9436 29.4866 35.3395 29.1829L35.3427 29.1797Z" fill="black"/>
</svg>
