<svg width="31" height="31" viewBox="0 0 31 31" fill="none" xmlns="http://www.w3.org/2000/svg">
<path d="M15.3123 30.187C23.4562 30.187 30.0581 23.5851 30.0581 15.4412C30.0581 7.29725 23.4562 0.695312 15.3123 0.695312C7.16835 0.695312 0.566406 7.29725 0.566406 15.4412C0.566406 23.5851 7.16835 30.187 15.3123 30.187Z" fill="black"/>
<path d="M19.3558 10.5459H11.2676C9.6806 10.5459 8.39453 11.8324 8.39453 13.419V17.4622C8.39453 19.0492 9.68105 20.3352 11.2676 20.3352H19.3554C20.9424 20.3352 22.2285 19.0487 22.2285 17.4622V13.419C22.2289 11.8324 20.9424 10.5459 19.3558 10.5459ZM17.4124 15.6374L13.6293 17.4417C13.5283 17.4899 13.412 17.4163 13.412 17.3044V13.5831C13.412 13.4699 13.5315 13.3962 13.6324 13.4476L17.4156 15.3646C17.5284 15.4219 17.5265 15.5833 17.4124 15.6374Z" fill="white"/>
</svg>
